<svg width="56" height="56" viewBox="0 0 56 56" fill="none" xmlns="http://www.w3.org/2000/svg">
<path d="M32.6666 4.66663H14C12.7623 4.66663 11.5753 5.15829 10.7001 6.03346C9.82498 6.90863 9.33331 8.09562 9.33331 9.33329V46.6666C9.33331 47.9043 9.82498 49.0913 10.7001 49.9665C11.5753 50.8416 12.7623 51.3333 14 51.3333H42C43.2377 51.3333 44.4246 50.8416 45.2998 49.9665C46.175 49.0913 46.6666 47.9043 46.6666 46.6666V18.6666L32.6666 4.66663Z" stroke="#00AE8D" stroke-width="4" stroke-linecap="round" stroke-linejoin="round"/>
<path d="M37.3334 39.6666H18.6667" stroke="#00AE8D" stroke-width="4" stroke-linecap="round" stroke-linejoin="round"/>
<path d="M37.3334 30.3334H18.6667" stroke="#00AE8D" stroke-width="4" stroke-linecap="round" stroke-linejoin="round"/>
<path d="M23.3334 21H21H18.6667" stroke="#00AE8D" stroke-width="4" stroke-linecap="round" stroke-linejoin="round"/>
<path d="M32.6667 4.66663V18.6666H46.6667" stroke="#00AE8D" stroke-width="4" stroke-linecap="round" stroke-linejoin="round"/>
</svg>
