<svg width="56" height="56" viewBox="0 0 56 56" fill="none" xmlns="http://www.w3.org/2000/svg">
<path d="M34.3 14.7C33.8725 15.1362 33.633 15.7226 33.633 16.3334C33.633 16.9441 33.8725 17.5305 34.3 17.9667L38.0334 21.7C38.4695 22.1276 39.0559 22.367 39.6667 22.367C40.2774 22.367 40.8639 22.1276 41.3 21.7L50.0967 12.9034C51.27 15.4961 51.6252 18.3849 51.1151 21.1847C50.605 23.9845 49.2537 26.5623 47.2413 28.5747C45.229 30.587 42.6512 31.9383 39.8514 32.4484C37.0516 32.9586 34.1628 32.6033 31.57 31.43L15.4467 47.5534C14.5184 48.4816 13.2594 49.0031 11.9467 49.0031C10.6339 49.0031 9.37495 48.4816 8.4467 47.5534C7.51844 46.6251 6.99695 45.3661 6.99695 44.0534C6.99695 42.7406 7.51844 41.4816 8.4467 40.5534L24.57 24.43C23.3967 21.8373 23.0415 18.9485 23.5516 16.1487C24.0618 13.3489 25.413 10.7711 27.4254 8.75872C29.4377 6.74637 32.0156 5.3951 34.8154 4.88497C37.6151 4.37484 40.5039 4.73009 43.0967 5.90337L34.3234 14.6767L34.3 14.7Z" stroke="#00AE8D" stroke-width="4" stroke-linecap="round" stroke-linejoin="round"/>
</svg>
