<svg width="24" height="24" viewBox="0 0 24 24" fill="none" xmlns="http://www.w3.org/2000/svg">
<g clip-path="url(#clip0_3500_27272)">
<path d="M14.4646 1.02463V11.6308C14.4631 11.6514 14.4557 11.6712 14.4435 11.6879C14.4312 11.7046 14.4145 11.7175 14.3953 11.7252C14.3761 11.7329 14.3551 11.735 14.3347 11.7314C14.3143 11.7278 14.2954 11.7185 14.28 11.7046L14.0862 11.5292C14.0441 11.4923 13.9899 11.4718 13.9339 11.4718C13.8778 11.4718 13.8237 11.4923 13.7816 11.5292L8.47386 16.1446C8.4544 16.1575 8.43997 16.1767 8.43301 16.199C8.42606 16.2213 8.42702 16.2453 8.43569 16.267C8.44436 16.2886 8.46021 16.3067 8.48062 16.318C8.50103 16.3294 8.52474 16.3333 8.54772 16.3292H9.60925C9.63618 16.3292 9.66202 16.3399 9.68106 16.359C9.7001 16.378 9.71078 16.4039 9.71078 16.4308V23.0308C9.71078 23.0577 9.7001 23.0835 9.68106 23.1026C9.66202 23.1216 9.63618 23.1323 9.60925 23.1323H1.03386C1.01977 23.1336 1.00557 23.1319 0.99217 23.1274C0.978764 23.1229 0.966457 23.1156 0.956027 23.106C0.945598 23.0965 0.937274 23.0849 0.931604 23.0719C0.925934 23.0589 0.923038 23.0449 0.923097 23.0308V1.02463C0.923038 1.01048 0.925934 0.996475 0.931604 0.983513C0.937274 0.970551 0.945598 0.958917 0.956027 0.949357C0.966457 0.939797 0.978764 0.932528 0.99217 0.928004C1.00557 0.92348 1.01977 0.921802 1.03386 0.923088H14.3539C14.3817 0.922991 14.4086 0.933385 14.4291 0.952202C14.4496 0.971019 14.4623 0.996878 14.4646 1.02463V1.02463Z" stroke="#798CA5" stroke-width="2" stroke-miterlimit="10"/>
<path d="M23.0769 8.4831V23.0769H18.3323V16.2739H18.9785C19.0035 16.2725 19.0276 16.2638 19.0478 16.249C19.068 16.2341 19.0835 16.2137 19.0923 16.1902C19.1011 16.1667 19.1029 16.1412 19.0974 16.1167C19.092 16.0922 19.0795 16.0698 19.0616 16.0523L14.4462 11.8708V8.25233H22.8277C22.8595 8.24977 22.8915 8.25385 22.9217 8.2643C22.9519 8.27475 22.9795 8.29133 23.003 8.31302C23.0264 8.33471 23.0451 8.36103 23.0578 8.3903C23.0705 8.41958 23.077 8.45117 23.0769 8.4831V8.4831Z" stroke="#798CA5" stroke-width="2" stroke-miterlimit="10"/>
<path d="M18.3231 16.2739H9.71075V23.0769H18.3231V16.2739Z" stroke="#798CA5" stroke-width="2" stroke-miterlimit="10"/>
<path d="M19.0431 16.2738H8.53846C8.51777 16.2747 8.49733 16.2692 8.47984 16.2581C8.46235 16.247 8.44866 16.2309 8.44063 16.2118C8.43259 16.1927 8.43059 16.1716 8.43488 16.1514C8.43917 16.1311 8.44955 16.1126 8.46463 16.0984L13.8646 11.4831C13.8853 11.4699 13.9093 11.463 13.9338 11.463C13.9584 11.463 13.9824 11.4699 14.0031 11.4831L14.4646 11.9077L19.08 16.1354C19.0934 16.1586 19.097 16.1863 19.0901 16.2122C19.0832 16.2382 19.0663 16.2603 19.0431 16.2738V16.2738Z" stroke="#798CA5" stroke-width="2" stroke-miterlimit="10"/>
</g>
<defs>
<clipPath id="clip0_3500_27272">
<rect width="24" height="24" fill="white"/>
</clipPath>
</defs>
</svg>
