<svg width="36" height="36" viewBox="0 0 36 36" fill="none" xmlns="http://www.w3.org/2000/svg">
<path d="M0 0V36H36V0H0ZM29.1732 28.1385C29.697 27.1645 29.5628 25.9221 28.7403 25.0996C28.2554 24.6147 27.6104 24.3463 26.9221 24.3463C26.2338 24.3463 25.5887 24.6147 25.1039 25.0996C24.0996 26.1039 24.0996 27.7359 25.1039 28.7359C25.6061 29.2381 26.2641 29.4892 26.9221 29.4892C27.342 29.4892 27.7619 29.3766 28.1385 29.1688L33.5065 34.5368H23.5931L18.0866 29.0303L34.5411 12.5758V33.5065L29.1732 28.1385ZM26.1385 27.7056C25.7056 27.2727 25.7056 26.5671 26.1385 26.1342C26.355 25.9177 26.6407 25.8095 26.9221 25.8095C27.2078 25.8095 27.4892 25.9177 27.7056 26.1342C28.1385 26.5671 28.1385 27.2727 27.7056 27.7056C27.2727 28.1385 26.5671 28.1385 26.1385 27.7056ZM1.4632 23.4199L1.49351 23.4502L12.9654 11.9784C13.3377 12.1818 13.7576 12.303 14.1948 12.303C14.8831 12.303 15.5281 12.0346 16.013 11.5498C16.4978 11.0649 16.7662 10.4199 16.7662 9.7316C16.7662 9.04329 16.4978 8.39827 16.013 7.91342C15.0087 6.90909 13.3766 6.90909 12.3766 7.91342C11.8918 8.39827 11.6234 9.04329 11.6234 9.7316C11.6234 10.1602 11.7403 10.5714 11.9351 10.9394L1.4632 21.4156V11.1515L11.1515 1.4632H12.4502L21.8571 10.8701L17.2424 15.4805C16.2684 14.9567 15.0303 15.0952 14.2078 15.9134C13.2035 16.9177 13.2035 18.5498 14.2078 19.5498C14.6926 20.0346 15.3377 20.303 16.026 20.303C16.7143 20.303 17.3593 20.0346 17.8442 19.5498C18.6667 18.7273 18.8009 17.4848 18.2771 16.5108L23.9221 10.8658L14.5152 1.4632H24.8225L34.2035 10.8442L17.0519 27.9957L13.1472 24.0909C13.6797 23.1169 13.5411 21.8701 12.7186 21.0476C11.7143 20.0433 10.0822 20.0433 9.08225 21.0476C8.07792 22.0519 8.07792 23.684 9.08225 24.684C9.5671 25.1688 10.2121 25.4372 10.9004 25.4372C11.3333 25.4372 11.7403 25.3203 12.1126 25.1212L21.5325 34.5411H11.1515L1.4632 24.8528V23.4199ZM13.4069 8.94805C13.6234 8.7316 13.9091 8.62338 14.1905 8.62338C14.4762 8.62338 14.7576 8.7316 14.974 8.94805C15.4069 9.38095 15.4069 10.0866 14.974 10.5195C14.5541 10.9394 13.8225 10.9394 13.4026 10.5195C12.974 10.0866 12.974 9.38095 13.4069 8.94805ZM16.8139 18.5195C16.3939 18.9394 15.6623 18.9394 15.2424 18.5195C14.8095 18.0866 14.8095 17.381 15.2424 16.9481C15.4589 16.7316 15.7446 16.6234 16.026 16.6234C16.3117 16.6234 16.5931 16.7316 16.8095 16.9481C17.2468 17.381 17.2468 18.0866 16.8139 18.5195ZM10.1126 23.6493C9.67965 23.2164 9.67965 22.5108 10.1126 22.0779C10.329 21.8615 10.6147 21.7532 10.8961 21.7532C11.1818 21.7532 11.4632 21.8615 11.6797 22.0779C12.1126 22.5108 12.1126 23.2164 11.6797 23.6493C11.2641 24.0693 10.5325 24.0693 10.1126 23.6493ZM34.5368 9.11255L26.8874 1.4632H34.5368V9.11255ZM9.08225 1.4632L1.4632 9.08225V1.4632H9.08225ZM1.4632 26.9177L9.08225 34.5368H1.4632V26.9177Z" fill="#00AE8D"/>
</svg>
