<svg width="420" height="272" viewBox="0 0 420 272" fill="none" xmlns="http://www.w3.org/2000/svg">
<path d="M13.3113 208.759C15.3927 187.54 27.973 166.358 47.9897 158.949C40.5931 180.927 41.2183 204.809 49.7546 226.37C53.0769 234.674 57.6377 243.564 54.9391 252.09C53.2601 257.395 48.9219 261.533 44.0209 264.178C39.1196 266.823 33.6385 268.165 28.2259 269.482L27.1777 270.394C18.0278 251.131 11.2298 229.978 13.3113 208.759Z" fill="#F0F0F0"/>
<path d="M48.2005 159.344C36.8988 172.667 29.7855 189.683 28.5418 207.127C28.2729 210.898 28.3288 214.747 29.2489 218.433C30.1734 222.02 32.0426 225.294 34.6623 227.914C37.0558 230.407 39.7931 232.68 41.5382 235.711C43.3776 238.905 43.5411 242.584 42.4296 246.057C41.0696 250.306 38.2621 253.813 35.3973 257.148C32.2164 260.851 28.8538 264.646 27.5867 269.478C27.4332 270.064 26.5327 269.792 26.6859 269.207C28.8904 260.8 36.8761 255.85 40.5473 248.234C42.2604 244.681 42.9115 240.59 41.1231 236.932C39.5593 233.734 36.7386 231.388 34.2933 228.885C31.7257 226.256 29.7338 223.351 28.6543 219.811C27.55 216.19 27.3434 212.335 27.5145 208.573C27.9664 200.046 29.7578 191.643 32.8232 183.672C36.2712 174.555 41.2553 166.094 47.5598 158.656C47.9502 158.195 48.5884 158.887 48.2006 159.344L48.2005 159.344Z" fill="white"/>
<path d="M28.6465 201.435C25.7218 200.806 23.1162 199.159 21.2951 196.789C19.4739 194.418 18.5557 191.478 18.7046 188.493C18.7118 188.372 18.766 188.258 18.8557 188.175C18.9455 188.093 19.0639 188.048 19.1858 188.051C19.3078 188.054 19.4239 188.104 19.5096 188.191C19.5954 188.277 19.644 188.394 19.6454 188.516C19.5017 191.295 20.3572 194.033 22.0576 196.237C23.758 198.441 26.1912 199.966 28.9181 200.535C29.5105 200.66 29.2356 201.559 28.6465 201.435Z" fill="white"/>
<path d="M33.2822 226.81C38.4496 223.543 42.1943 218.451 43.7695 212.549C43.9251 211.964 44.8257 212.236 44.6703 212.82C43.0196 218.959 39.1119 224.25 33.7271 227.638C33.2136 227.961 32.7715 227.131 33.2822 226.81Z" fill="white"/>
<path d="M37.1671 175.422C38.248 175.901 39.431 176.104 40.61 176.013C41.7889 175.923 42.9269 175.541 43.9217 174.903C44.4308 174.574 44.8724 175.404 44.3666 175.731C43.2642 176.431 42.0069 176.851 40.7046 176.954C39.4022 177.057 38.0944 176.84 36.8955 176.321C36.7784 176.282 36.6807 176.2 36.6223 176.091C36.5638 175.982 36.549 175.855 36.5809 175.736C36.6175 175.617 36.6995 175.517 36.8093 175.458C36.9191 175.4 37.0477 175.386 37.1671 175.422H37.1671Z" fill="white"/>
<path d="M110.537 195.124C110.225 195.338 109.913 195.553 109.601 195.775C105.421 198.679 101.483 201.918 97.8279 205.459C97.5409 205.728 97.2542 206.006 96.9756 206.283C88.2601 214.908 81.2237 225.074 76.224 236.264C74.2385 240.719 72.5954 245.318 71.3086 250.022C69.5319 256.518 68.123 263.703 64.4107 269.076C64.0297 269.64 63.614 270.181 63.1661 270.695L28.374 271.601C28.2939 271.563 28.2136 271.533 28.1331 271.496L26.7456 271.596C26.795 271.348 26.8516 271.093 26.901 270.846C26.929 270.702 26.9648 270.558 26.9929 270.415C27.014 270.319 27.0356 270.223 27.0492 270.136C27.0561 270.104 27.0634 270.072 27.0706 270.048C27.0842 269.96 27.1061 269.88 27.12 269.801C27.4321 268.373 27.7549 266.944 28.0883 265.515C28.0881 265.507 28.0881 265.507 28.0956 265.499C30.6635 254.619 34.1634 243.857 39.1875 233.968C39.3388 233.671 39.4894 233.365 39.6566 233.067C41.946 228.622 44.5953 224.372 47.578 220.358C49.2184 218.165 50.9688 216.057 52.8226 214.041C57.6225 208.842 63.2115 204.428 69.3845 200.964C81.6913 194.058 96.0723 191.161 109.513 194.833C109.857 194.927 110.193 195.022 110.537 195.124Z" fill="#F0F0F0"/>
<path d="M110.471 195.567C93.4154 199.409 77.4786 208.717 65.9702 221.898C63.4821 224.747 61.2064 227.854 59.7189 231.351C58.2951 234.77 57.8141 238.508 58.3259 242.176C58.7343 245.605 59.5497 249.066 59.1163 252.535C58.6594 256.192 56.572 259.228 53.5911 261.332C49.9439 263.907 45.5879 265.02 41.2902 265.959C36.5185 267.003 31.5456 268.012 27.6212 271.108C27.1457 271.483 26.5907 270.724 27.0655 270.349C33.8933 264.963 43.2536 265.812 50.7757 261.939C54.2856 260.132 57.2715 257.257 58.0484 253.261C58.7278 249.767 57.89 246.198 57.4464 242.729C56.9806 239.086 57.1415 235.569 58.4136 232.093C59.7149 228.538 61.8737 225.335 64.2779 222.435C69.779 215.898 76.2748 210.266 83.5276 205.745C91.7765 200.539 100.856 196.78 110.374 194.632C110.963 194.5 111.056 195.435 110.471 195.567H110.471Z" fill="white"/>
<path d="M69.4847 217.416C67.5287 215.155 66.441 212.274 66.416 209.286C66.3909 206.298 67.4301 203.398 69.348 201.105C69.7376 200.642 70.4759 201.225 70.0857 201.688C68.2958 203.821 67.3281 206.522 67.3571 209.304C67.3861 212.086 68.4099 214.767 70.2439 216.861C70.6419 217.317 69.8804 217.869 69.4847 217.416Z" fill="white"/>
<path d="M57.8895 240.464C63.9848 240.963 70.0444 239.149 74.8599 235.383C75.3367 235.01 75.8919 235.769 75.4157 236.142C70.3971 240.051 64.0873 241.926 57.7456 241.393C57.1411 241.342 57.2883 240.413 57.8894 240.464H57.8895Z" fill="white"/>
<path d="M91.9691 201.77C92.5434 202.802 93.3654 203.676 94.3614 204.312C95.3573 204.949 96.496 205.328 97.6751 205.417C98.2799 205.46 98.132 206.389 97.5312 206.346C96.2289 206.242 94.9719 205.821 93.87 205.12C92.7681 204.419 91.8548 203.459 91.2099 202.325C91.1401 202.223 91.1118 202.098 91.1307 201.976C91.1496 201.854 91.2143 201.744 91.3116 201.668C91.4125 201.595 91.5382 201.565 91.6613 201.584C91.7844 201.603 91.895 201.67 91.9691 201.77Z" fill="white"/>
<path d="M314.736 18.6176C314.217 17.0856 307.702 11.878 311.694 11.0028L314.968 15.3622L330.018 0.330933L331.531 1.84273L314.736 18.6176Z" fill="#00AE8D"/>
<path d="M314.736 69.7303C314.217 68.1983 307.702 62.9907 311.694 62.1154L314.968 66.4749L330.018 51.4436L331.531 52.9554L314.736 69.7303Z" fill="#00AE8D"/>
<path d="M314.736 121.573C314.217 120.041 307.702 114.834 311.694 113.958L314.968 118.318L330.018 103.286L331.531 104.798L314.736 121.573Z" fill="#00AE8D"/>
<path d="M300.878 79.6595C303.442 79.6595 305.522 77.5828 305.522 75.0211C305.522 72.4594 303.442 70.3827 300.878 70.3827C298.313 70.3827 296.233 72.4594 296.233 75.0211C296.233 77.5828 298.313 79.6595 300.878 79.6595Z" fill="#3F3D56"/>
<path d="M300.878 29.1007C303.442 29.1007 305.522 27.024 305.522 24.4623C305.522 21.9005 303.442 19.8239 300.878 19.8239C298.313 19.8239 296.233 21.9005 296.233 24.4623C296.233 27.024 298.313 29.1007 300.878 29.1007Z" fill="#3F3D56"/>
<path d="M420 13.7938H345.229V14.7215H420V13.7938Z" fill="#3F3D56"/>
<path d="M303.199 133.555C305.764 133.555 307.844 131.479 307.844 128.917C307.844 126.355 305.764 124.278 303.199 124.278C300.634 124.278 298.555 126.355 298.555 128.917C298.555 131.479 300.634 133.555 303.199 133.555Z" fill="#3F3D56"/>
<path d="M420 64.9065H345.229V65.8342H420V64.9065Z" fill="#3F3D56"/>
<path d="M420 116.749H345.229V117.677H420V116.749Z" fill="#3F3D56"/>
<path d="M326.466 128.484H303.245V104.828H319.035V105.756H304.174V127.557H325.537V116.888H326.466V128.484Z" fill="#3F3D56"/>
<path d="M326.466 76.534H303.245V52.8781H319.035V53.8057H304.174V75.6064H325.537V64.938H326.466V76.534Z" fill="#3F3D56"/>
<path d="M326.466 23.656H303.245V0H319.035V0.927686H304.174V22.7283H325.537V12.0599H326.466V23.656Z" fill="#3F3D56"/>
<path d="M174.855 84.3135C174.855 84.3135 168.649 110.484 176.234 110.484C183.819 110.484 201.747 80.87 201.747 80.87L195.541 73.2943L184.402 88.7402L183.819 80.87L174.855 84.3135Z" fill="#A0616A"/>
<path d="M200.094 82.0077C203.428 82.0077 206.131 79.308 206.131 75.9777C206.131 72.6475 203.428 69.9478 200.094 69.9478C196.759 69.9478 194.056 72.6475 194.056 75.9777C194.056 79.308 196.759 82.0077 200.094 82.0077Z" fill="#A0616A"/>
<path d="M169.593 262.557L177.629 262.557L181.452 231.597L169.591 231.598L169.593 262.557Z" fill="#A0616A"/>
<path d="M169.31 270.93L194.023 270.929V270.617C194.023 268.069 193.009 265.626 191.205 263.824C189.401 262.023 186.955 261.011 184.404 261.01H184.403L179.889 257.59L171.467 261.011L169.31 261.011L169.31 270.93Z" fill="#2F2E41"/>
<path d="M83.1479 252.543L90.3385 256.127L107.602 230.131L96.9889 224.841L83.1479 252.543Z" fill="#A0616A"/>
<path d="M79.1509 259.909L101.263 270.93L101.403 270.651C102.542 268.371 102.728 265.733 101.919 263.316C101.111 260.9 99.3741 258.903 97.0916 257.765L97.0911 257.765L94.5814 252.691L85.5159 251.995L83.5856 251.033L79.1509 259.909Z" fill="#2F2E41"/>
<path d="M264.647 270.961H0V272H264.647V270.961Z" fill="#CCCCCC"/>
<path d="M117.636 131.791C117.636 131.791 114.424 170.359 113.734 178.623C113.262 183.804 112.102 188.899 110.287 193.774C110.287 193.774 108.908 196.529 108.908 199.284L93.2778 227.654C93.2778 227.654 88.5016 231.161 89.1911 233.916C89.8807 236.67 86.3115 238.323 86.3115 238.323L102.771 241.491C102.771 241.491 102.082 239.425 104.15 238.736C106.219 238.048 107.866 232.074 107.866 232.074L130.973 194.463L147.522 160.028C147.522 160.028 157.176 191.02 159.245 194.463C159.245 194.463 166.83 233.03 168.209 236.474C169.588 239.917 170.278 239.917 169.588 241.295C168.898 242.672 168.898 244.049 169.588 244.738C170.278 245.427 183.379 244.738 183.379 244.738L179.931 195.84L173.725 137.301L142.006 127.659L117.636 131.791Z" fill="#2F2E41"/>
<path d="M148.691 39.7197C156.688 39.7197 163.171 33.2445 163.171 25.257C163.171 17.2695 156.688 10.7943 148.691 10.7943C140.693 10.7943 134.21 17.2695 134.21 25.257C134.21 33.2445 140.693 39.7197 148.691 39.7197Z" fill="#A0616A"/>
<path d="M175.104 60.8553L157.866 50.4241C157.866 50.4241 157.388 43.9466 152.477 43.6418C150.011 43.4888 146.311 43.2549 140.758 42.8973C139.584 42.8217 138.792 49.2344 137.447 49.1474L119.251 53.9683L122.009 100.8C122.009 100.8 117.872 119.395 119.251 122.838C120.63 126.282 115.803 127.659 117.182 128.348C118.561 129.036 117.182 133.857 117.182 133.857C117.182 133.857 144.075 147.631 173.725 137.301L170.967 128.348C171.343 127.177 171.413 125.931 171.172 124.726C170.93 123.521 170.385 122.397 169.588 121.461C169.588 121.461 172.346 117.329 168.898 113.885C168.898 113.885 170.278 107.687 166.83 104.932L166.14 95.2902L168.209 90.4693L175.104 60.8553Z" fill="#E6E6E6"/>
<path d="M136.125 33.5191L135.72 32.5801C135.668 32.4587 130.547 20.3675 135.086 12.9094C137.188 9.45659 141.008 7.50722 146.442 7.11585C154.944 6.50185 160.763 8.51619 163.742 13.0987C164.241 13.8753 164.522 14.772 164.555 15.6945C164.587 16.617 164.37 17.5312 163.927 18.341C163.483 19.1507 162.829 19.8262 162.034 20.2962C161.238 20.7663 160.331 21.0137 159.407 21.0123H159.292L157.73 18.9864L157.639 19.1835C157.074 20.4056 155.775 21.0746 154.253 20.9281C153.995 20.9095 153.765 21.1326 153.581 21.61C153.519 21.8189 153.402 22.0072 153.242 22.1553C153.082 22.3033 152.885 22.4056 152.672 22.4514C151.548 22.67 149.946 21.2558 149.229 20.551C149.201 20.7132 149.139 20.8676 149.046 21.0037C148.954 21.1399 148.833 21.2546 148.692 21.3401C147.936 21.7756 146.76 21.2067 146.422 21.0255C143.733 21.5962 141.992 21.4436 141.246 20.5723C140.74 24.1455 139.655 30.5773 138.353 30.9338C138.217 30.965 138.075 30.9517 137.947 30.8959C137.819 30.8401 137.713 30.7447 137.643 30.6237C137.33 30.2174 137.05 30.0149 136.875 30.0718C136.451 30.2063 136.202 31.5987 136.166 32.4974L136.125 33.5191Z" fill="#2F2E41"/>
<path d="M167.519 61.544L174.398 60.4279C179.353 65.1829 182.728 71.3415 184.069 78.0728C186.137 89.092 186.827 91.1581 186.827 91.1581L170.278 95.2903L161.313 78.0728L167.519 61.544Z" fill="#E6E6E6"/>
<path d="M136.997 75.8765L132.746 129.698L241.227 138.245L245.478 84.4233L136.997 75.8765Z" fill="white"/>
<path d="M148.586 80.0465C145.932 78.153 142.561 78.0161 141.273 78.0433C141.666 79.2679 142.887 82.4088 145.542 84.3031C148.203 86.2014 151.569 86.3341 152.855 86.3076C152.462 85.0834 151.241 81.9413 148.586 80.0465Z" fill="#00AE8D"/>
<path d="M159.059 114.294L141.64 112.922C141.126 112.881 140.608 112.942 140.117 113.102C139.626 113.261 139.171 113.515 138.779 113.85C138.386 114.185 138.063 114.594 137.829 115.053C137.594 115.512 137.453 116.013 137.412 116.527C137.371 117.042 137.433 117.559 137.592 118.049C137.752 118.539 138.006 118.994 138.341 119.386C138.677 119.778 139.086 120.1 139.546 120.335C140.006 120.569 140.507 120.71 141.022 120.751L158.441 122.123C159.48 122.205 160.51 121.871 161.303 121.195C162.096 120.519 162.587 119.556 162.669 118.517C162.751 117.479 162.417 116.451 161.74 115.659C161.063 114.867 160.099 114.376 159.059 114.294Z" fill="#00AE8D"/>
<path d="M241.201 79.1918L143.539 71.4966C142.403 71.4073 141.261 71.5423 140.177 71.8939C139.093 72.2455 138.089 72.8069 137.223 73.546C136.357 74.2851 135.644 75.1874 135.127 76.2014C134.61 77.2154 134.297 78.3212 134.208 79.4557L130.452 126.977C130.272 129.269 131.01 131.538 132.504 133.287C133.999 135.035 136.128 136.119 138.422 136.301L236.084 143.996C237.22 144.085 238.363 143.95 239.446 143.599C240.53 143.247 241.534 142.686 242.4 141.946C243.267 141.207 243.979 140.305 244.496 139.291C245.013 138.277 245.326 137.171 245.415 136.037L248.984 90.8699L249.056 89.9471L249.17 88.5112C249.259 87.3766 249.124 86.2356 248.772 85.1532C248.42 84.0709 247.858 83.0684 247.118 82.203C246.378 81.3376 245.475 80.6263 244.459 80.1096C243.444 79.5929 242.337 79.2811 241.201 79.1918ZM238.317 120.538L237.698 128.367C237.585 129.749 236.928 131.031 235.872 131.932C234.815 132.832 233.445 133.278 232.06 133.173L218.994 132.144C217.609 132.031 216.326 131.375 215.424 130.32C214.523 129.265 214.076 127.896 214.182 126.512L214.801 118.683C214.915 117.301 215.571 116.019 216.628 115.119C217.684 114.219 219.055 113.772 220.44 113.878L233.501 114.907C234.885 115.021 236.169 115.676 237.071 116.731C237.973 117.786 238.421 119.154 238.317 120.538ZM136.548 116.455C136.649 115.189 137.25 114.014 138.217 113.188C139.185 112.363 140.441 111.955 141.71 112.053L159.128 113.426C159.757 113.475 160.37 113.647 160.933 113.932C161.496 114.218 161.997 114.611 162.407 115.09C162.817 115.569 163.129 116.124 163.325 116.723C163.52 117.322 163.596 117.954 163.547 118.582C163.498 119.211 163.325 119.823 163.039 120.385C162.753 120.947 162.358 121.447 161.879 121.856C161.399 122.266 160.843 122.577 160.243 122.772C159.643 122.966 159.01 123.041 158.381 122.992L158.372 122.994L140.953 121.621C140.324 121.571 139.711 121.398 139.149 121.111C138.587 120.825 138.087 120.43 137.678 119.951C137.269 119.471 136.958 118.915 136.765 118.315C136.571 117.716 136.497 117.084 136.548 116.455ZM140.277 77.733L140.158 77.2463L140.659 77.2004C140.855 77.1794 145.488 76.764 149.095 79.3371C152.702 81.9104 153.808 86.4251 153.856 86.6139L153.97 87.1017L153.47 87.1521C152.761 87.2047 152.048 87.2 151.339 87.138C149.084 87.0061 146.906 86.2715 145.033 85.0108C141.426 82.4376 140.32 77.9229 140.277 77.733Z" fill="#00AE8D"/>
<path d="M223.664 125.73L218.003 125.284C217.6 125.253 217.2 125.383 216.892 125.646C216.584 125.909 216.394 126.283 216.362 126.686C216.33 127.09 216.459 127.489 216.722 127.797C216.985 128.105 217.359 128.296 217.763 128.328L223.424 128.774C223.828 128.806 224.227 128.675 224.535 128.412C224.843 128.15 225.034 127.775 225.066 127.372C225.098 126.969 224.968 126.569 224.705 126.262C224.442 125.954 224.068 125.762 223.664 125.73Z" fill="#00AE8D"/>
<path d="M234.116 126.553L228.454 126.107C228.051 126.077 227.651 126.207 227.344 126.47C227.036 126.733 226.846 127.107 226.814 127.51C226.782 127.913 226.911 128.312 227.174 128.62C227.436 128.928 227.81 129.119 228.214 129.152L233.875 129.598C234.279 129.629 234.678 129.498 234.986 129.235C235.293 128.972 235.484 128.598 235.516 128.195C235.548 127.792 235.418 127.393 235.156 127.085C234.893 126.777 234.519 126.586 234.116 126.553Z" fill="#00AE8D"/>
<path d="M223.973 121.816L218.312 121.37C217.909 121.339 217.509 121.469 217.202 121.732C216.894 121.995 216.704 122.369 216.672 122.772C216.64 123.175 216.769 123.574 217.032 123.882C217.294 124.19 217.668 124.381 218.072 124.414L223.733 124.86C224.137 124.891 224.537 124.761 224.844 124.498C225.152 124.235 225.343 123.861 225.375 123.458C225.407 123.054 225.277 122.655 225.014 122.347C224.751 122.039 224.377 121.848 223.973 121.816Z" fill="#00AE8D"/>
<path d="M234.425 122.639L228.764 122.193C228.36 122.162 227.96 122.292 227.652 122.555C227.345 122.818 227.154 123.192 227.122 123.595C227.09 123.999 227.22 124.398 227.482 124.706C227.745 125.014 228.119 125.205 228.523 125.238L234.184 125.684C234.588 125.715 234.988 125.584 235.296 125.322C235.603 125.059 235.794 124.684 235.826 124.281C235.858 123.878 235.728 123.478 235.465 123.171C235.203 122.863 234.828 122.672 234.425 122.639Z" fill="#00AE8D"/>
<path d="M224.283 117.901L218.622 117.455C218.218 117.424 217.818 117.554 217.51 117.817C217.202 118.08 217.012 118.454 216.98 118.857C216.948 119.261 217.078 119.66 217.34 119.968C217.603 120.276 217.977 120.467 218.381 120.5L224.042 120.946C224.446 120.976 224.845 120.846 225.153 120.583C225.46 120.32 225.651 119.946 225.683 119.543C225.715 119.14 225.585 118.741 225.323 118.433C225.06 118.125 224.686 117.934 224.283 117.901Z" fill="#00AE8D"/>
<path d="M234.734 118.725L229.073 118.278C228.669 118.248 228.27 118.378 227.962 118.641C227.654 118.904 227.464 119.278 227.432 119.681C227.4 120.084 227.53 120.483 227.792 120.791C228.055 121.099 228.429 121.29 228.832 121.323L234.493 121.769C234.897 121.8 235.296 121.669 235.604 121.407C235.911 121.144 236.102 120.77 236.134 120.367C236.166 119.963 236.036 119.564 235.774 119.256C235.511 118.949 235.137 118.757 234.734 118.725Z" fill="#00AE8D"/>
<path d="M132.756 94.4501L132.684 95.3752L247.326 104.37L247.399 103.445L132.756 94.4501Z" fill="white"/>
<path d="M249.056 89.9471L248.984 90.8701L244.994 90.5575L202.485 87.2224L202.561 86.2985L245.066 89.6344L249.056 89.9471Z" fill="#3F3D56"/>
<path d="M108.908 80.1388C108.908 80.1388 102.702 106.309 110.287 106.309C117.872 106.309 135.8 76.6953 135.8 76.6953L129.594 69.1196L118.455 84.5656L117.872 76.6953L108.908 80.1388Z" fill="#A0616A"/>
<path d="M134.147 77.8331C137.481 77.8331 140.184 75.1334 140.184 71.8032C140.184 68.4729 137.481 65.7732 134.147 65.7732C130.812 65.7732 128.109 68.4729 128.109 71.8032C128.109 75.1334 130.812 77.8331 134.147 77.8331Z" fill="#A0616A"/>
<path d="M124.274 58.1005L120.137 53.9683C120.137 53.9683 111.862 58.7892 111.172 63.6101C110.483 68.431 107.035 83.5823 107.035 83.5823L119.792 84.6154L123.929 78.4171L124.274 58.1005Z" fill="#E6E6E6"/>
</svg>
