<svg width="412" height="324" viewBox="0 0 412 324" fill="none" xmlns="http://www.w3.org/2000/svg">
<path d="M202.758 73.6143H201.054V26.9868C201.054 19.8295 198.208 12.9653 193.141 7.90426C188.075 2.84325 181.203 8.92466e-06 174.038 1.71275e-10H75.1425C71.5946 -1.26255e-05 68.0815 0.698009 64.8037 2.05421C61.5259 3.41041 58.5477 5.39823 56.039 7.90417C53.5302 10.4101 51.5402 13.3851 50.1825 16.6593C48.8248 19.9335 48.126 23.4427 48.126 26.9867V282.789C48.126 286.333 48.8248 289.842 50.1825 293.117C51.5401 296.391 53.5302 299.366 56.0389 301.872C58.5476 304.378 61.5258 306.365 64.8036 307.722C68.0814 309.078 71.5945 309.776 75.1423 309.776H174.038C177.585 309.776 181.099 309.078 184.376 307.722C187.654 306.366 190.632 304.378 193.141 301.872C195.65 299.366 197.64 296.391 198.998 293.117C200.355 289.842 201.054 286.333 201.054 282.789V106.805H202.758V73.6143Z" fill="#3F3D56"/>
<path d="M174.924 7.6593H162.015C162.609 9.11316 162.836 10.6905 162.675 12.2525C162.515 13.8144 161.972 15.313 161.096 16.6162C160.219 17.9194 159.035 18.9872 157.647 19.7256C156.26 20.4639 154.713 20.8502 153.141 20.8503H96.4848C94.913 20.8502 93.3653 20.4639 91.978 19.7256C90.5908 18.9872 89.4067 17.9194 88.5299 16.6162C87.6531 15.313 87.1106 13.8144 86.9502 12.2525C86.7899 10.6905 87.0165 9.11316 87.6101 7.6593H75.553C70.2021 7.6593 65.0704 9.78258 61.2867 13.5621C57.5031 17.3416 55.3775 22.4677 55.3774 27.8127V283.24C55.3774 285.886 55.8993 288.507 56.9132 290.952C57.9271 293.397 59.4132 295.619 61.2867 297.49C63.1602 299.362 65.3843 300.846 67.8321 301.859C70.2799 302.872 72.9035 303.393 75.553 303.393H174.924C180.275 303.393 185.407 301.27 189.191 297.49C192.974 293.711 195.1 288.585 195.1 283.24V27.8127C195.1 25.1661 194.578 22.5455 193.564 20.1003C192.55 17.6552 191.064 15.4335 189.191 13.5621C187.317 11.6907 185.093 10.2062 182.645 9.19338C180.198 8.18058 177.574 7.6593 174.925 7.6593H174.924ZM172.756 126.154C172.752 127.537 172.2 128.862 171.221 129.84C170.241 130.818 168.915 131.37 167.53 131.374H142.271C140.887 131.37 139.56 130.818 138.581 129.84C137.601 128.862 137.05 127.537 137.046 126.154V124.849C137.05 123.465 137.601 122.14 138.581 121.162C139.56 120.184 140.887 119.632 142.271 119.628H167.53C168.915 119.632 170.241 120.184 171.221 121.162C172.2 122.14 172.752 123.465 172.756 124.849V126.154ZM175.586 103.098C175.582 104.481 175.03 105.807 174.051 106.785C173.072 107.763 171.745 108.314 170.36 108.318H79.7786C78.3939 108.314 77.067 107.763 76.0878 106.785C75.1087 105.807 74.5568 104.481 74.5527 103.098V101.793C74.5568 100.41 75.1087 99.0842 76.0878 98.1062C77.067 97.1281 78.3939 96.5768 79.7786 96.5727H170.36C171.745 96.5768 173.072 97.1281 174.051 98.1062C175.03 99.0842 175.582 100.41 175.586 101.793V103.098ZM175.586 80.0423C175.582 81.4255 175.03 82.7509 174.051 83.729C173.072 84.7071 171.745 85.2584 170.36 85.2624H79.7786C78.3939 85.2584 77.067 84.7071 76.0878 83.729C75.1087 82.7509 74.5568 81.4255 74.5527 80.0423V78.7372C74.5568 77.354 75.1087 76.0286 76.0878 75.0505C77.067 74.0724 78.3939 73.5211 79.7786 73.5171H170.36C171.745 73.5211 173.072 74.0724 174.051 75.0505C175.03 76.0286 175.582 77.354 175.586 78.7372V80.0423ZM175.586 56.9866C175.582 58.3698 175.03 59.6953 174.051 60.6733C173.072 61.6514 171.745 62.2027 170.36 62.2068H79.7786C78.3939 62.2027 77.067 61.6514 76.0878 60.6733C75.1087 59.6953 74.5568 58.3698 74.5527 56.9866V55.6816C74.5568 54.2983 75.1087 52.9729 76.0878 51.9948C77.067 51.0167 78.3939 50.4655 79.7786 50.4614H170.36C171.745 50.4655 173.072 51.0168 174.051 51.9948C175.03 52.9729 175.582 54.2983 175.586 55.6816V56.9866Z" fill="white"/>
<path d="M81.7384 105.708C83.422 105.708 84.7868 104.345 84.7868 102.663C84.7868 100.981 83.422 99.6179 81.7384 99.6179C80.0548 99.6179 78.6899 100.981 78.6899 102.663C78.6899 104.345 80.0548 105.708 81.7384 105.708Z" fill="white"/>
<path d="M91.7545 105.708C93.4381 105.708 94.8029 104.345 94.8029 102.663C94.8029 100.981 93.4381 99.6179 91.7545 99.6179C90.0709 99.6179 88.7061 100.981 88.7061 102.663C88.7061 104.345 90.0709 105.708 91.7545 105.708Z" fill="white"/>
<path d="M101.771 105.708C103.454 105.708 104.819 104.345 104.819 102.663C104.819 100.981 103.454 99.6179 101.771 99.6179C100.087 99.6179 98.7222 100.981 98.7222 102.663C98.7222 104.345 100.087 105.708 101.771 105.708Z" fill="white"/>
<path d="M111.787 105.708C113.471 105.708 114.836 104.345 114.836 102.663C114.836 100.981 113.471 99.6179 111.787 99.6179C110.104 99.6179 108.739 100.981 108.739 102.663C108.739 104.345 110.104 105.708 111.787 105.708Z" fill="white"/>
<path d="M144.449 128.764C146.132 128.764 147.497 127.4 147.497 125.719C147.497 124.037 146.132 122.674 144.449 122.674C142.765 122.674 141.4 124.037 141.4 125.719C141.4 127.4 142.765 128.764 144.449 128.764Z" fill="white"/>
<path d="M154.465 128.764C156.149 128.764 157.513 127.4 157.513 125.719C157.513 124.037 156.149 122.674 154.465 122.674C152.781 122.674 151.417 124.037 151.417 125.719C151.417 127.4 152.781 128.764 154.465 128.764Z" fill="white"/>
<path d="M164.482 128.764C166.165 128.764 167.53 127.4 167.53 125.719C167.53 124.037 166.165 122.674 164.482 122.674C162.798 122.674 161.433 124.037 161.433 125.719C161.433 127.4 162.798 128.764 164.482 128.764Z" fill="white"/>
<path d="M176.287 165.173H72.9807C70.5537 165.173 68.226 166.136 66.5099 167.851C64.7937 169.565 63.8296 171.89 63.8296 174.314V224.592C63.8296 227.016 64.7937 229.341 66.5099 231.056C68.226 232.77 70.5537 233.733 72.9807 233.733H176.287C178.714 233.733 181.042 232.77 182.758 231.056C184.474 229.341 185.438 227.016 185.438 224.592V174.314C185.438 171.89 184.474 169.565 182.758 167.851C181.042 166.136 178.714 165.173 176.287 165.173H176.287ZM70.4247 171.409C70.6287 171.372 75.4661 170.55 79.4717 172.957C83.4771 175.365 85.016 180.019 85.0794 180.216L85.2414 180.718L84.7216 180.81C83.98 180.926 83.2303 180.981 82.4798 180.975C80.0989 181.02 77.7492 180.429 75.6744 179.261C71.669 176.855 70.1303 172.2 70.0669 172.003L69.9049 171.501L70.4247 171.409ZM92.8498 218.089H74.4243C73.0804 218.089 71.7916 217.555 70.8413 216.606C69.8911 215.657 69.3573 214.369 69.3573 213.027C69.3573 211.685 69.8911 210.397 70.8413 209.448C71.7916 208.499 73.0804 207.966 74.4243 207.966H92.8498C94.1937 207.966 95.4825 208.499 96.4327 209.448C97.383 210.397 97.9168 211.685 97.9168 213.027C97.9168 214.369 97.383 215.657 96.4327 216.606C95.4825 217.555 94.1937 218.089 92.8498 218.089V218.089ZM176.686 217.168C176.682 218.631 176.098 220.033 175.062 221.068C174.026 222.103 172.623 222.686 171.158 222.69H157.339C155.874 222.686 154.471 222.103 153.435 221.068C152.399 220.033 151.816 218.631 151.811 217.168V208.886C151.816 207.423 152.399 206.021 153.435 204.986C154.471 203.952 155.874 203.369 157.339 203.364H171.158C172.623 203.369 174.026 203.952 175.062 204.986C176.098 206.021 176.682 207.423 176.686 208.886L176.686 217.168Z" fill="#00AE8D"/>
<path d="M161.795 215.462H156.239C155.842 215.462 155.461 215.619 155.181 215.899C154.9 216.179 154.743 216.56 154.743 216.956C154.743 217.352 154.9 217.732 155.181 218.012C155.461 218.293 155.842 218.45 156.239 218.45H161.795C162.192 218.45 162.572 218.293 162.853 218.012C163.133 217.732 163.291 217.352 163.291 216.956C163.291 216.56 163.133 216.179 162.853 215.899C162.572 215.619 162.192 215.462 161.795 215.462V215.462Z" fill="#3F3D56"/>
<path d="M172.053 215.462H166.496C166.1 215.462 165.719 215.619 165.439 215.899C165.158 216.179 165 216.56 165 216.956C165 217.352 165.158 217.732 165.439 218.012C165.719 218.293 166.1 218.45 166.496 218.45H172.053C172.449 218.45 172.83 218.293 173.11 218.012C173.391 217.732 173.549 217.352 173.549 216.956C173.549 216.56 173.391 216.179 173.11 215.899C172.83 215.619 172.449 215.462 172.053 215.462V215.462Z" fill="#3F3D56"/>
<path d="M161.794 211.243H156.238C155.841 211.243 155.46 211.401 155.18 211.681C154.899 211.961 154.742 212.341 154.742 212.738C154.742 213.134 154.899 213.514 155.18 213.794C155.46 214.075 155.841 214.232 156.238 214.232H161.794C162.191 214.232 162.571 214.075 162.852 213.794C163.132 213.514 163.29 213.134 163.29 212.738C163.29 212.341 163.132 211.961 162.852 211.681C162.571 211.401 162.191 211.243 161.794 211.243V211.243Z" fill="#3F3D56"/>
<path d="M172.052 211.243H166.495C166.099 211.243 165.718 211.401 165.438 211.681C165.157 211.961 165 212.341 165 212.738C165 213.134 165.157 213.514 165.438 213.794C165.718 214.075 166.099 214.232 166.495 214.232H172.052C172.448 214.232 172.829 214.075 173.11 213.794C173.39 213.514 173.548 213.134 173.548 212.738C173.548 212.341 173.39 211.961 173.11 211.681C172.829 211.401 172.448 211.243 172.052 211.243H172.052Z" fill="#3F3D56"/>
<path d="M161.794 207.111H156.238C155.841 207.111 155.46 207.268 155.18 207.548C154.899 207.829 154.742 208.209 154.742 208.605C154.742 209.001 154.899 209.381 155.18 209.662C155.46 209.942 155.841 210.099 156.238 210.099H161.794C162.191 210.099 162.571 209.942 162.852 209.662C163.132 209.381 163.29 209.001 163.29 208.605C163.29 208.209 163.132 207.829 162.852 207.548C162.571 207.268 162.191 207.111 161.794 207.111V207.111Z" fill="#3F3D56"/>
<path d="M172.052 207.111H166.495C166.099 207.111 165.718 207.268 165.438 207.548C165.157 207.829 165 208.209 165 208.605C165 209.001 165.157 209.381 165.438 209.662C165.718 209.942 166.099 210.099 166.495 210.099H172.052C172.448 210.099 172.829 209.942 173.11 209.662C173.39 209.381 173.548 209.001 173.548 208.605C173.548 208.209 173.39 207.829 173.11 207.548C172.829 207.268 172.448 207.111 172.052 207.111H172.052Z" fill="#3F3D56"/>
<path d="M247.839 184.113H234.364V197.573H247.839V184.113Z" fill="#E6E6E6"/>
<path d="M218.483 192.285H240.62V214.398H218.483V192.285ZM239.657 193.246H219.445V213.436H239.657V193.246Z" fill="#3F3D56"/>
<path d="M13.4747 73.0682H0V86.5282H13.4747V73.0682Z" fill="#E6E6E6"/>
<path d="M29.3558 78.356H7.21875V56.2433H29.3558V78.356ZM8.18123 77.3946H28.3933V57.2047H8.18123V77.3946Z" fill="#3F3D56"/>
<path d="M314.287 317.951H308.387L305.58 295.219H314.288L314.287 317.951Z" fill="#FFB8B8"/>
<path d="M304.172 316.267H315.551V323.423H297.008C297.008 321.525 297.763 319.705 299.107 318.363C300.45 317.021 302.272 316.267 304.172 316.267V316.267Z" fill="#2F2E41"/>
<path d="M343.642 317.951H337.742L334.936 295.219H343.643L343.642 317.951Z" fill="#FFB8B8"/>
<path d="M333.528 316.267H344.906V323.423H326.364C326.364 321.525 327.119 319.705 328.462 318.363C329.806 317.021 331.628 316.267 333.528 316.267V316.267Z" fill="#2F2E41"/>
<path d="M284.69 236.656C284.266 236.032 283.983 235.322 283.863 234.576C283.743 233.831 283.788 233.068 283.995 232.342C284.202 231.616 284.566 230.944 285.061 230.374C285.556 229.803 286.171 229.348 286.861 229.04L306.917 173.823L316.786 179.202L293.886 231.97C294.327 233.163 294.314 234.475 293.851 235.659C293.387 236.843 292.505 237.816 291.372 238.393C290.238 238.971 288.932 239.113 287.7 238.793C286.469 238.473 285.398 237.713 284.69 236.656V236.656Z" fill="#FFB8B8"/>
<path d="M340.629 247.032C339.973 246.656 339.408 246.142 338.973 245.524C338.538 244.907 338.244 244.202 338.111 243.459C337.978 242.716 338.01 241.952 338.205 241.223C338.399 240.493 338.751 239.815 339.237 239.236L333.023 180.825L344.255 181.338L346.837 238.793C347.756 239.671 348.321 240.857 348.424 242.123C348.527 243.39 348.162 244.651 347.396 245.667C346.631 246.682 345.52 247.382 344.272 247.634C343.025 247.885 341.729 247.671 340.629 247.032V247.032Z" fill="#FFB8B8"/>
<path d="M322.712 163.595C329.24 163.595 334.532 158.309 334.532 151.788C334.532 145.267 329.24 139.981 322.712 139.981C316.184 139.981 310.892 145.267 310.892 151.788C310.892 158.309 316.184 163.595 322.712 163.595Z" fill="#FFB8B8"/>
<path d="M340.553 233.747H304.919L304.962 233.47C305.026 233.056 311.313 191.918 306.676 178.46C306.211 177.137 306.252 175.689 306.791 174.395C307.33 173.101 308.329 172.052 309.597 171.449H309.597C316.224 168.332 328.946 164.493 339.684 173.809C341.264 175.203 342.498 176.944 343.288 178.896C344.078 180.848 344.403 182.957 344.236 185.056L340.553 233.747Z" fill="#CCCCCC"/>
<path d="M311.763 197.998L295.72 194.747L303.24 176.946C303.69 175.222 304.806 173.746 306.343 172.843C307.881 171.94 309.715 171.683 311.442 172.128C313.169 172.574 314.648 173.685 315.556 175.219C316.464 176.753 316.726 178.584 316.284 180.31L311.763 197.998Z" fill="#CCCCCC"/>
<path d="M332.31 204.034L331.345 181.95C330.614 177.798 332.993 173.874 336.652 173.232C340.312 172.593 343.886 175.472 344.621 179.654L348.246 200.29L332.31 204.034Z" fill="#CCCCCC"/>
<path d="M339.367 231.104C345.101 252.917 345.727 280.65 344.18 310.902L336.48 309.94L322.524 252.255L314.824 310.902L306.162 310.421C303.574 278.68 301.054 251.43 305.199 233.507L339.367 231.104Z" fill="#2F2E41"/>
<path d="M330.5 160.913C328.295 163.259 324.2 161.999 323.912 158.794C323.89 158.545 323.892 158.295 323.917 158.046C324.066 156.626 324.887 155.337 324.69 153.838C324.646 153.465 324.506 153.109 324.286 152.805C322.529 150.455 318.404 153.856 316.746 151.729C315.729 150.424 316.924 148.37 316.144 146.912C315.114 144.987 312.063 145.937 310.151 144.883C308.022 143.71 308.149 140.448 309.551 138.464C311.259 136.044 314.255 134.753 317.213 134.567C320.172 134.381 323.11 135.18 325.872 136.255C329.01 137.476 332.122 139.165 334.053 141.921C336.402 145.273 336.628 149.78 335.453 153.699C334.739 156.084 332.3 158.997 330.5 160.913Z" fill="#2F2E41"/>
<path d="M411.519 324H228.166C228.039 324 227.916 323.949 227.826 323.859C227.736 323.769 227.685 323.647 227.685 323.519C227.685 323.392 227.736 323.27 227.826 323.179C227.916 323.089 228.039 323.039 228.166 323.039H411.519C411.646 323.039 411.769 323.089 411.859 323.179C411.949 323.27 412 323.392 412 323.519C412 323.647 411.949 323.769 411.859 323.859C411.769 323.949 411.646 324 411.519 324Z" fill="#3F3D56"/>
</svg>
