<svg width="420" height="256" viewBox="0 0 420 256" fill="none" xmlns="http://www.w3.org/2000/svg">
<path d="M112.805 179.127H38.4258V181.866H112.805V179.127Z" fill="#F2F2F2"/>
<path d="M281.185 179.127H206.806V181.866H281.185V179.127Z" fill="#F2F2F2"/>
<path d="M395.72 179.127H321.341V181.866H395.72V179.127Z" fill="#F2F2F2"/>
<path d="M396.156 137.64C395.472 137.993 394.836 138.433 394.263 138.948C393.681 138.431 393.034 137.991 392.339 137.64C391.655 137.993 391.019 138.433 390.446 138.948C389.864 138.431 389.218 137.991 388.523 137.64C388.523 137.64 385.556 139.099 385.564 140.883C385.564 140.928 385.566 140.972 385.57 141.016C385.671 142.184 388.739 142.481 390.424 141.931C391.671 142.287 392.993 142.287 394.24 141.931C395.918 142.49 399.048 142.17 399.139 140.989C399.143 140.945 399.144 140.9 399.144 140.856C399.136 139.072 396.156 137.64 396.156 137.64Z" fill="#F2F2F2"/>
<path d="M3.18134 76.2827L0.549316 74.1765L15.2869 61.0132H52.6572V72.597L28.4456 88.9197L3.18134 76.2827Z" fill="#3F3D56"/>
<path d="M59.4708 68.3969V61.2761H54.5093V63.0199L52.6571 61.0132L40.5515 74.1765L35.8145 77.3358L28.4692 131.019L39.5463 142.101H65.2897V74.7033L59.4708 68.3969Z" fill="#CCCCCC"/>
<path d="M40.5514 74.1768H0.549316V142.101H40.5514V74.1768Z" fill="#F2F2F2"/>
<path d="M23.4455 125.515H16.0767V142.101H23.4455V125.515Z" fill="#CCCCCC"/>
<path d="M8.18159 130.252V127.621H5.02344V130.252H7.9183H8.18159Z" fill="#3F3D56"/>
<path d="M7.9183 132.36H5.02344V134.992H8.18159V132.36H7.9183Z" fill="#3F3D56"/>
<path d="M13.4452 127.621H10.2871V130.253H13.4452V127.621Z" fill="#3F3D56"/>
<path d="M13.4452 132.36H10.2871V134.992H13.4452V132.36Z" fill="#3F3D56"/>
<path d="M29.7617 130.252V127.621H26.6035V130.252H29.4984H29.7617Z" fill="#3F3D56"/>
<path d="M29.4984 132.36H26.6035V134.992H29.7617V132.36H29.4984Z" fill="#3F3D56"/>
<path d="M35.0252 127.621H31.8672V130.253H35.0252V127.621Z" fill="#3F3D56"/>
<path d="M35.0252 132.36H31.8672V134.992H35.0252V132.36Z" fill="#3F3D56"/>
<path d="M51.8681 77.5983V74.9663H48.71V77.5983H51.6053H51.8681Z" fill="#3F3D56"/>
<path d="M51.6053 79.7056H48.71V82.3381H51.8681V79.7056H51.6053Z" fill="#3F3D56"/>
<path d="M57.1312 74.9666H53.9731V77.5983H57.1312V74.9666Z" fill="#3F3D56"/>
<path d="M57.1312 79.7053H53.9731V82.338H57.1312V79.7053Z" fill="#3F3D56"/>
<path d="M51.8681 92.3425V89.71H48.71V92.3425H51.6053H51.8681Z" fill="#3F3D56"/>
<path d="M51.6053 94.4487H48.71V97.0803H51.8681V94.4487H51.6053Z" fill="#3F3D56"/>
<path d="M57.1312 89.7097H53.9731V92.3424H57.1312V89.7097Z" fill="#3F3D56"/>
<path d="M57.1312 94.4485H53.9731V97.0802H57.1312V94.4485Z" fill="#3F3D56"/>
<path d="M51.8681 107.085V104.453H48.71V107.085H51.6053H51.8681Z" fill="#3F3D56"/>
<path d="M51.6053 109.192H48.71V111.823H51.8681V109.192H51.6053Z" fill="#3F3D56"/>
<path d="M57.1312 104.453H53.9731V107.085H57.1312V104.453Z" fill="#3F3D56"/>
<path d="M57.1312 109.192H53.9731V111.824H57.1312V109.192Z" fill="#3F3D56"/>
<path d="M51.8681 121.828V119.196H48.71V121.828H51.6053H51.8681Z" fill="#3F3D56"/>
<path d="M51.6053 123.935H48.71V126.568H51.8681V123.935H51.6053Z" fill="#3F3D56"/>
<path d="M57.1312 119.196H53.9731V121.828H57.1312V119.196Z" fill="#3F3D56"/>
<path d="M57.1312 123.935H53.9731V126.568H57.1312V123.935Z" fill="#3F3D56"/>
<path d="M35.5513 77.5991H5.02344V83.9176H35.5513V77.5991Z" fill="#3F3D56"/>
<path d="M35.5513 90.2363H5.02344V96.5549H35.5513V90.2363Z" fill="#3F3D56"/>
<path d="M35.5513 102.873H5.02344V109.192H35.5513V102.873Z" fill="#3F3D56"/>
<path d="M35.5513 115.51H5.02344V121.829H35.5513V115.51Z" fill="#3F3D56"/>
<path d="M63.0645 138.021C62.3804 138.375 61.7443 138.815 61.1717 139.33C60.5897 138.813 59.943 138.373 59.2479 138.021C58.5638 138.375 57.9277 138.815 57.3551 139.33C56.7731 138.813 56.1264 138.373 55.4312 138.021C55.4312 138.021 52.4645 139.481 52.4727 141.265C52.4729 141.309 52.4749 141.354 52.4788 141.398C52.58 142.566 55.6473 142.863 57.3323 142.313C58.5797 142.669 59.9016 142.669 61.149 142.313C62.8268 142.872 65.9565 142.552 66.048 141.371C66.0514 141.326 66.053 141.282 66.0528 141.237C66.0446 139.454 63.0645 138.021 63.0645 138.021Z" fill="#00AE8D"/>
<path d="M49.3625 76.2827L46.7305 74.1765L61.4681 61.0132H98.8384V72.597L74.6268 88.9197L49.3625 76.2827Z" fill="#3F3D56"/>
<path d="M105.652 68.3969V61.2761H100.691V63.0199L98.8387 61.0132L86.7332 74.1765L81.9962 77.3358L74.6509 131.019L85.7279 142.101H111.471V74.7033L105.652 68.3969Z" fill="#CCCCCC"/>
<path d="M86.733 74.1768H46.731V142.101H86.733V74.1768Z" fill="#F2F2F2"/>
<path d="M69.6266 125.515H62.2578V142.101H69.6266V125.515Z" fill="#CCCCCC"/>
<path d="M54.3632 130.252V127.621H51.2051V130.252H54.0999H54.3632Z" fill="#3F3D56"/>
<path d="M54.0999 132.36H51.2051V134.992H54.3632V132.36H54.0999Z" fill="#3F3D56"/>
<path d="M59.6263 127.621H56.4683V130.253H59.6263V127.621Z" fill="#3F3D56"/>
<path d="M59.6263 132.36H56.4683V134.992H59.6263V132.36Z" fill="#3F3D56"/>
<path d="M75.9428 130.252V127.621H72.7847V130.252H75.6795H75.9428Z" fill="#3F3D56"/>
<path d="M75.6795 132.36H72.7847V134.992H75.9428V132.36H75.6795Z" fill="#3F3D56"/>
<path d="M81.2064 127.621H78.0483V130.253H81.2064V127.621Z" fill="#3F3D56"/>
<path d="M81.2064 132.36H78.0483V134.992H81.2064V132.36Z" fill="#3F3D56"/>
<path d="M98.0493 77.5983V74.9663H94.8911V77.5983H97.7864H98.0493Z" fill="#3F3D56"/>
<path d="M97.7864 79.7056H94.8911V82.3381H98.0493V79.7056H97.7864Z" fill="#3F3D56"/>
<path d="M103.313 74.9666H100.155V77.5983H103.313V74.9666Z" fill="#3F3D56"/>
<path d="M103.313 79.7053H100.155V82.338H103.313V79.7053Z" fill="#3F3D56"/>
<path d="M98.0493 92.3425V89.71H94.8911V92.3425H97.7864H98.0493Z" fill="#3F3D56"/>
<path d="M97.7864 94.4487H94.8911V97.0803H98.0493V94.4487H97.7864Z" fill="#3F3D56"/>
<path d="M103.313 89.7097H100.155V92.3424H103.313V89.7097Z" fill="#3F3D56"/>
<path d="M103.313 94.4485H100.155V97.0802H103.313V94.4485Z" fill="#3F3D56"/>
<path d="M98.0493 107.085V104.453H94.8911V107.085H97.7864H98.0493Z" fill="#3F3D56"/>
<path d="M97.7864 109.192H94.8911V111.823H98.0493V109.192H97.7864Z" fill="#3F3D56"/>
<path d="M103.313 104.453H100.155V107.085H103.313V104.453Z" fill="#3F3D56"/>
<path d="M103.313 109.192H100.155V111.824H103.313V109.192Z" fill="#3F3D56"/>
<path d="M98.0493 121.828V119.196H94.8911V121.828H97.7864H98.0493Z" fill="#3F3D56"/>
<path d="M97.7864 123.935H94.8911V126.568H98.0493V123.935H97.7864Z" fill="#3F3D56"/>
<path d="M103.313 119.196H100.155V121.828H103.313V119.196Z" fill="#3F3D56"/>
<path d="M103.313 123.935H100.155V126.568H103.313V123.935Z" fill="#3F3D56"/>
<path d="M81.7325 77.5991H51.2046V83.9176H81.7325V77.5991Z" fill="#3F3D56"/>
<path d="M81.7325 90.2363H51.2046V96.5549H81.7325V90.2363Z" fill="#3F3D56"/>
<path d="M81.7325 102.873H51.2046V109.192H81.7325V102.873Z" fill="#3F3D56"/>
<path d="M81.7325 115.51H51.2046V121.829H81.7325V115.51Z" fill="#3F3D56"/>
<path d="M55.5555 26.1483C62.7734 26.1483 68.6247 20.2948 68.6247 13.0742C68.6247 5.85351 62.7734 0 55.5555 0C48.3376 0 42.4863 5.85351 42.4863 13.0742C42.4863 20.2948 48.3376 26.1483 55.5555 26.1483Z" fill="#FF6584"/>
<path d="M139.315 91.5027H138.041V141.862H139.315V91.5027Z" fill="#3F3D56"/>
<path d="M151.751 106.159C151.754 106.713 151.749 107.264 151.736 107.813C151.279 127.637 127.521 127.746 126.882 107.927C126.864 107.379 126.854 106.828 126.851 106.273C126.749 84.1143 139.116 66.0933 139.116 66.0933C139.116 66.0933 151.649 83.9995 151.751 106.159Z" fill="#E6E6E6"/>
<path d="M134.882 137.91C134.198 138.263 133.562 138.703 132.99 139.218C132.408 138.701 131.761 138.261 131.066 137.91C130.382 138.263 129.746 138.703 129.173 139.218C128.591 138.701 127.944 138.261 127.249 137.91C127.249 137.91 124.282 139.369 124.291 141.153C124.291 141.198 124.293 141.242 124.297 141.286C124.398 142.454 127.465 142.752 129.15 142.201C130.398 142.557 131.72 142.557 132.967 142.201C134.645 142.76 137.774 142.44 137.866 141.259C137.869 141.215 137.871 141.17 137.871 141.126C137.863 139.342 134.882 137.91 134.882 137.91Z" fill="#CCCCCC"/>
<path d="M170.542 120.512L168.963 117.88L183.701 93.7886H221.597V97.4743L207.913 123.672L192.122 126.831L170.542 120.512Z" fill="#3F3D56"/>
<path d="M228.121 112.659V92.9661H223.16V95.5639L221.598 93.7887L208.966 117.88L206.86 119.986L204.229 130.517L208.966 142.101H233.177V118.406L228.121 112.659Z" fill="#CCCCCC"/>
<path d="M208.965 117.88H168.963V142.101H208.965V117.88Z" fill="#F2F2F2"/>
<path d="M203.439 125.515H195.018V132.886H203.439V125.515Z" fill="#3F3D56"/>
<path d="M191.596 125.251H184.228V142.101H191.596V125.251Z" fill="#CCCCCC"/>
<path d="M175.806 127.883V125.252H172.648V127.883H175.543H175.806Z" fill="#3F3D56"/>
<path d="M175.543 129.99H172.648V132.622H175.806V129.99H175.543Z" fill="#3F3D56"/>
<path d="M181.069 125.251H177.911V127.883H181.069V125.251Z" fill="#3F3D56"/>
<path d="M181.069 129.99H177.911V132.622H181.069V129.99Z" fill="#3F3D56"/>
<path d="M220.282 128.528V125.897H217.124V128.528H220.019H220.282Z" fill="#3F3D56"/>
<path d="M220.019 130.635H217.124V133.267H220.282V130.635H220.019Z" fill="#3F3D56"/>
<path d="M225.545 125.896H222.387V128.528H225.545V125.896Z" fill="#3F3D56"/>
<path d="M225.545 130.635H222.387V133.267H225.545V130.635Z" fill="#3F3D56"/>
<path d="M187.105 103.69L186.689 102.998L190.567 96.6589H200.538V97.6285L196.938 104.521L192.783 105.353L187.105 103.69Z" fill="#3F3D56"/>
<path d="M200.538 96.6589L197.215 102.998L196.661 103.552L195.968 106.323L197.215 109.37H203.585V103.136L200.538 96.6589Z" fill="#CCCCCC"/>
<path d="M197.215 102.998H186.69V109.371H197.215V102.998Z" fill="#F2F2F2"/>
<path d="M191.149 105.744V104.487H189.641V105.744H191.023H191.149Z" fill="#3F3D56"/>
<path d="M191.023 106.75H189.641V108.006H191.149V106.75H191.023Z" fill="#3F3D56"/>
<path d="M193.662 104.487H192.154V105.743H193.662V104.487Z" fill="#3F3D56"/>
<path d="M193.662 106.75H192.154V108.006H193.662V106.75Z" fill="#3F3D56"/>
<path d="M218.251 120.512L216.671 117.88L231.409 93.7886H269.306V97.4743L255.621 123.672L239.831 126.831L218.251 120.512Z" fill="#3F3D56"/>
<path d="M275.829 112.659V92.9661H270.868V95.5639L269.306 93.7887L256.673 117.88L254.568 119.986L251.936 130.517L256.673 142.101H280.885V118.406L275.829 112.659Z" fill="#CCCCCC"/>
<path d="M256.673 117.88H216.671V142.101H256.673V117.88Z" fill="#F2F2F2"/>
<path d="M251.147 125.515H242.726V132.886H251.147V125.515Z" fill="#3F3D56"/>
<path d="M239.304 125.251H231.936V142.101H239.304V125.251Z" fill="#CCCCCC"/>
<path d="M223.514 127.883V125.251H220.355V127.883H223.251H223.514Z" fill="#3F3D56"/>
<path d="M223.251 129.99H220.355V132.622H223.514V129.99H223.251Z" fill="#3F3D56"/>
<path d="M228.777 125.251H225.619V127.883H228.777V125.251Z" fill="#3F3D56"/>
<path d="M228.777 129.99H225.619V132.622H228.777V129.99Z" fill="#3F3D56"/>
<path d="M267.99 128.148V125.515H264.832V128.148H267.726H267.99Z" fill="#3F3D56"/>
<path d="M267.726 130.253H264.832V132.886H267.99V130.253H267.726Z" fill="#3F3D56"/>
<path d="M273.253 125.515H270.095V128.147H273.253V125.515Z" fill="#3F3D56"/>
<path d="M273.253 130.254H270.095V132.886H273.253V130.254Z" fill="#3F3D56"/>
<path d="M264.432 120.512L262.853 117.88L277.59 93.7886H315.487V97.4743L301.802 123.672L286.012 126.831L264.432 120.512Z" fill="#3F3D56"/>
<path d="M322.01 112.659V92.9661H317.049V95.5639L315.487 93.7887L302.855 117.88L300.749 119.986L298.117 130.517L302.855 142.101H327.066V118.406L322.01 112.659Z" fill="#CCCCCC"/>
<path d="M302.855 117.88H262.853V142.101H302.855V117.88Z" fill="#F2F2F2"/>
<path d="M297.328 125.515H288.907V132.886H297.328V125.515Z" fill="#3F3D56"/>
<path d="M285.485 125.251H278.117V142.101H285.485V125.251Z" fill="#CCCCCC"/>
<path d="M269.695 127.883V125.251H266.537V127.883H269.432H269.695Z" fill="#3F3D56"/>
<path d="M269.432 129.99H266.537V132.622H269.695V129.99H269.432Z" fill="#3F3D56"/>
<path d="M274.958 125.251H271.8V127.883H274.958V125.251Z" fill="#3F3D56"/>
<path d="M274.958 129.99H271.8V132.622H274.958V129.99Z" fill="#3F3D56"/>
<path d="M314.171 128.148V125.515H311.013V128.148H313.908H314.171Z" fill="#3F3D56"/>
<path d="M313.908 130.253H311.013V132.886H314.171V130.253H313.908Z" fill="#3F3D56"/>
<path d="M319.434 125.515H316.276V128.147H319.434V125.515Z" fill="#3F3D56"/>
<path d="M319.434 130.254H316.276V132.886H319.434V130.254Z" fill="#3F3D56"/>
<path d="M233.668 104.073L233.253 103.38L237.13 97.0408H247.102V98.0108L243.501 104.904L239.346 105.735L233.668 104.073Z" fill="#3F3D56"/>
<path d="M247.101 97.0408L243.777 103.38L243.223 103.934L242.531 106.705L243.777 109.753H250.148V103.518L247.101 97.0408Z" fill="#CCCCCC"/>
<path d="M243.778 103.38H233.253V109.752H243.778V103.38Z" fill="#F2F2F2"/>
<path d="M237.712 106.125V104.869H236.204V106.125H237.586H237.712Z" fill="#3F3D56"/>
<path d="M237.586 107.131H236.204V108.388H237.712V107.131H237.586Z" fill="#3F3D56"/>
<path d="M240.225 104.869H238.717V106.125H240.225V104.869Z" fill="#3F3D56"/>
<path d="M240.225 107.131H238.717V108.388H240.225V107.131Z" fill="#3F3D56"/>
<path d="M280.231 103.69L279.815 102.998L283.693 96.6589H293.664V97.6285L290.063 104.521L285.909 105.353L280.231 103.69Z" fill="#3F3D56"/>
<path d="M293.664 96.6589L290.34 102.998L289.786 103.552L289.094 106.323L290.34 109.37H296.711V103.136L293.664 96.6589Z" fill="#CCCCCC"/>
<path d="M290.34 102.998H279.815V109.371H290.34V102.998Z" fill="#F2F2F2"/>
<path d="M284.275 105.744V104.487H282.767V105.744H284.149H284.275Z" fill="#3F3D56"/>
<path d="M284.149 106.75H282.767V108.006H284.275V106.75H284.149Z" fill="#3F3D56"/>
<path d="M286.788 104.487H285.28V105.743H286.788V104.487Z" fill="#3F3D56"/>
<path d="M286.788 106.75H285.28V108.006H286.788V106.75Z" fill="#3F3D56"/>
<path d="M312.139 120.512L310.561 117.88L325.298 93.7886H363.195V97.4743L349.51 123.672L333.719 126.831L312.139 120.512Z" fill="#3F3D56"/>
<path d="M369.719 97.1676V92.9661H364.757V95.5639L363.195 93.7887L350.563 117.88L348.457 119.986L345.826 130.517L350.563 142.101H374.775V118.406L369.719 97.1676Z" fill="#CCCCCC"/>
<path d="M350.563 117.88H310.561V142.101H350.563V117.88Z" fill="#F2F2F2"/>
<path d="M345.036 125.515H336.615V132.886H345.036V125.515Z" fill="#3F3D56"/>
<path d="M333.193 125.251H325.825V142.101H333.193V125.251Z" fill="#CCCCCC"/>
<path d="M317.403 127.883V125.251H314.245V127.883H317.14H317.403Z" fill="#3F3D56"/>
<path d="M317.14 129.99H314.245V132.622H317.403V129.99H317.14Z" fill="#3F3D56"/>
<path d="M322.666 125.251H319.508V127.883H322.666V125.251Z" fill="#3F3D56"/>
<path d="M322.666 129.99H319.508V132.622H322.666V129.99Z" fill="#3F3D56"/>
<path d="M361.879 128.148V125.515H358.721V128.148H361.616H361.879Z" fill="#3F3D56"/>
<path d="M361.616 130.253H358.721V132.886H361.879V130.253H361.616Z" fill="#3F3D56"/>
<path d="M367.142 125.515H363.984V128.147H367.142V125.515Z" fill="#3F3D56"/>
<path d="M367.142 130.254H363.984V132.886H367.142V130.254Z" fill="#3F3D56"/>
<path d="M326.794 104.073L326.379 103.38L330.256 97.0408H340.228V98.0108L336.627 104.904L332.472 105.735L326.794 104.073Z" fill="#3F3D56"/>
<path d="M340.228 97.0408L336.904 103.38L336.35 103.934L335.657 106.705L336.904 109.753H343.274V103.518L340.228 97.0408Z" fill="#CCCCCC"/>
<path d="M336.903 103.38H326.378V109.752H336.903V103.38Z" fill="#F2F2F2"/>
<path d="M330.837 106.125V104.869H329.33V106.125H330.712H330.837Z" fill="#3F3D56"/>
<path d="M330.712 107.131H329.33V108.388H330.837V107.131H330.712Z" fill="#3F3D56"/>
<path d="M333.351 104.869H331.843V106.125H333.351V104.869Z" fill="#3F3D56"/>
<path d="M333.351 107.131H331.843V108.388H333.351V107.131Z" fill="#3F3D56"/>
<path d="M420 141.839H0.381836V142.602H420V141.839Z" fill="#3F3D56"/>
<path d="M419.618 213.237H0V214.001H419.618V213.237Z" fill="#3F3D56"/>
<path d="M392.553 91.4951H391.279V141.839H392.553V91.4951Z" fill="#3F3D56"/>
<path d="M404.987 106.147C404.989 106.701 404.984 107.252 404.971 107.8C404.515 127.618 380.764 127.728 380.124 107.915C380.107 107.366 380.097 106.815 380.094 106.261C379.992 84.1089 392.356 66.0933 392.356 66.0933C392.356 66.0933 404.885 83.9941 404.987 106.147Z" fill="#E6E6E6"/>
<path d="M140.311 191.142H126.882V193.274H140.311V191.142Z" fill="#3F3D56"/>
<path d="M237.4 191.62L234.629 192.261L129.333 192.317L128.387 190.11C126.735 186.325 126.168 182.155 126.749 178.065C127.203 175.017 128.339 171.989 130.92 170.674L135.593 139.539L193.848 139.435L216.386 157.621C216.386 157.621 227.018 157.43 232.794 164.623C234.622 166.901 235.964 169.92 236.325 173.922L236.553 177.664L237.4 191.62Z" fill="#00AE8D"/>
<path d="M214.273 204.106C221.453 204.106 227.275 198.283 227.275 191.099C227.275 183.915 221.453 178.092 214.273 178.092C207.092 178.092 201.271 183.915 201.271 191.099C201.271 198.283 207.092 204.106 214.273 204.106Z" fill="#3F3D56"/>
<path d="M214.273 197.945C218.052 197.945 221.116 194.88 221.116 191.099C221.116 187.318 218.052 184.253 214.273 184.253C210.493 184.253 207.43 187.318 207.43 191.099C207.43 194.88 210.493 197.945 214.273 197.945Z" fill="#CCCCCC"/>
<path d="M150.115 204.141C157.296 204.141 163.117 198.317 163.117 191.134C163.117 183.95 157.296 178.126 150.115 178.126C142.934 178.126 137.113 183.95 137.113 191.134C137.113 198.317 142.934 204.141 150.115 204.141Z" fill="#3F3D56"/>
<path d="M150.115 197.979C153.894 197.979 156.958 194.914 156.958 191.133C156.958 187.353 153.894 184.288 150.115 184.288C146.335 184.288 143.271 187.353 143.271 191.133C143.271 194.914 146.335 197.979 150.115 197.979Z" fill="#CCCCCC"/>
<path d="M207.432 155.495L175.979 155.509H172.139L165.657 155.513V155.04L165.652 149.338L165.647 142.935H169.96L173.8 142.93L180.601 142.925H184.44L192.292 142.921L207.432 155.495Z" fill="white"/>
<path d="M160.539 155.518L143.916 155.527L143.912 152.264V146.562L143.907 142.948H146.341L150.181 142.944L160.534 142.939L160.539 155.518Z" fill="white"/>
<path d="M167.793 164.897H165.662V168.949H167.793V164.897Z" fill="#3F3D56"/>
<path d="M202.96 161.252L202.959 159.121L198.909 159.123L198.91 161.254L202.96 161.252Z" fill="#3F3D56"/>
<path d="M200.399 151.146H200.633C201.815 151.146 202.948 151.615 203.783 152.451C204.619 153.287 205.088 154.42 205.088 155.602C205.088 156.784 204.619 157.918 203.783 158.753C202.948 159.589 201.815 160.059 200.633 160.059H200.399V151.146Z" fill="#3F3D56"/>
<path d="M236.552 177.664C234.941 177.84 233.319 177.44 231.972 176.537C230.626 175.633 229.641 174.283 229.192 172.725C228.743 171.166 228.858 169.499 229.517 168.017C230.176 166.535 231.336 165.333 232.794 164.623C234.622 166.902 235.964 169.92 236.325 173.922L236.552 177.664Z" fill="#3F3D56"/>
<path d="M173.8 142.93L165.657 155.04L165.652 149.338L169.96 142.935L173.8 142.93Z" fill="#F2F2F2"/>
<path d="M150.181 142.944L143.912 152.264V146.562L146.342 142.948L150.181 142.944Z" fill="#F2F2F2"/>
<path d="M184.441 142.926L175.979 155.509H172.14L180.601 142.926H184.441Z" fill="#F2F2F2"/>
<path d="M311.131 164.344L319.288 164.349L319.289 163.054L311.132 163.05L311.131 164.344Z" fill="#3F3D56"/>
<path d="M252.156 163.341L253.839 163.731L317.8 163.765L318.375 162.425C319.378 160.125 319.722 157.592 319.369 155.108C319.094 153.257 318.403 151.417 316.836 150.618L313.997 131.706L278.611 131.642L264.92 142.689C264.92 142.689 258.462 142.573 254.953 146.942C253.688 148.567 252.94 150.536 252.809 152.591L252.67 154.864L252.156 163.341Z" fill="#3F3D56"/>
<path d="M266.204 170.926C270.566 170.926 274.102 167.389 274.102 163.025C274.102 158.661 270.566 155.124 266.204 155.124C261.842 155.124 258.306 158.661 258.306 163.025C258.306 167.389 261.842 170.926 266.204 170.926Z" fill="#3F3D56"/>
<path d="M266.204 167.184C268.5 167.184 270.361 165.322 270.361 163.025C270.361 160.728 268.5 158.867 266.204 158.867C263.908 158.867 262.047 160.728 262.047 163.025C262.047 165.322 263.908 167.184 266.204 167.184Z" fill="#CCCCCC"/>
<path d="M305.176 170.947C309.538 170.947 313.074 167.409 313.074 163.046C313.074 158.682 309.538 155.145 305.176 155.145C300.814 155.145 297.278 158.682 297.278 163.046C297.278 167.409 300.814 170.947 305.176 170.947Z" fill="#3F3D56"/>
<path d="M305.176 167.204C307.472 167.204 309.333 165.343 309.333 163.046C309.333 160.749 307.472 158.887 305.176 158.887C302.881 158.887 301.02 160.749 301.02 163.046C301.02 165.343 302.881 167.204 305.176 167.204Z" fill="#CCCCCC"/>
<path d="M270.36 141.398L289.465 141.406H291.797L295.735 141.409V141.122L295.738 137.658L295.741 133.768H293.121L290.789 133.765L286.658 133.762H284.325L279.556 133.76L270.36 141.398Z" fill="white"/>
<path d="M298.844 141.412L308.941 141.417L308.944 139.435V135.971L308.947 133.776H307.468L305.136 133.774L298.847 133.771L298.844 141.412Z" fill="white"/>
<path d="M294.437 149.57L295.731 149.57L295.733 147.11L294.438 147.11L294.437 149.57Z" fill="#3F3D56"/>
<path d="M275.536 144.896L275.537 143.601L273.077 143.6L273.076 144.895L275.536 144.896Z" fill="#3F3D56"/>
<path d="M274.63 144.171L274.487 144.171C273.77 144.17 273.082 143.885 272.574 143.377C272.067 142.869 271.782 142.18 271.783 141.462C271.783 140.744 272.069 140.056 272.576 139.548C273.084 139.041 273.773 138.756 274.49 138.756L274.633 138.757L274.63 144.171Z" fill="#3F3D56"/>
<path d="M252.67 154.864C253.65 154.971 254.635 154.728 255.453 154.179C256.271 153.63 256.869 152.81 257.142 151.864C257.414 150.917 257.345 149.904 256.944 149.004C256.544 148.104 255.839 147.374 254.953 146.942C253.688 148.567 252.94 150.535 252.809 152.591L252.67 154.864Z" fill="#3F3D56"/>
<path d="M290.789 133.765L295.736 141.121L295.738 137.658L293.121 133.768L290.789 133.765Z" fill="#F2F2F2"/>
<path d="M305.136 133.774L308.944 139.435V135.971L307.468 133.777L305.136 133.774Z" fill="#F2F2F2"/>
<path d="M284.325 133.762L289.465 141.406H291.797L286.658 133.762H284.325Z" fill="#F2F2F2"/>
<path d="M73.0748 222.291C73.0748 222.291 73.0748 236.77 76.3966 240.568C76.3966 240.568 77.1084 242.466 77.3457 243.178C77.4784 243.584 77.6369 243.98 77.8203 244.365V245.315C77.8203 245.315 84.2266 244.603 84.9384 242.941L83.752 241.517C83.752 241.517 83.5147 241.28 83.752 240.568C83.7927 240.49 83.8117 240.403 83.8071 240.316C83.8025 240.228 83.7744 240.144 83.7259 240.071C83.6773 239.998 83.6101 239.939 83.5312 239.902C83.4523 239.864 83.3647 239.848 83.2775 239.855L81.6166 236.058L81.8539 220.392L80.6675 198.792L70.4648 198.317L73.0748 222.291Z" fill="#2F2E41"/>
<path d="M78.2943 243.891C78.2943 243.891 76.6334 248.875 78.2943 249.113C79.9552 249.35 94.4288 249.587 94.1915 247.688C93.9543 245.789 89.2088 246.027 89.2088 246.027L84.2261 242.941L78.2943 243.891Z" fill="#2F2E41"/>
<path d="M63.5839 198.792C63.3802 201.024 63.8778 203.265 65.0075 205.201C66.9057 208.524 65.7193 219.68 65.7193 219.68L48.873 234.396C48.873 234.396 52.1948 240.093 53.3812 239.856C54.5676 239.618 73.312 224.427 73.312 224.427L80.6674 199.741L63.5839 198.792Z" fill="#2F2E41"/>
<path d="M49.1043 233.767C49.1043 233.767 44.0066 235.032 44.6953 236.563C45.3841 238.093 52.9321 250.45 54.4083 249.233C55.8846 248.016 53.1437 244.133 53.1437 244.133L53.0815 238.271L49.1043 233.767Z" fill="#2F2E41"/>
<path d="M72.8371 160.102C75.8511 160.102 78.2944 157.658 78.2944 154.643C78.2944 151.628 75.8511 149.183 72.8371 149.183C69.8232 149.183 67.3799 151.628 67.3799 154.643C67.3799 157.658 69.8232 160.102 72.8371 160.102Z" fill="#FFB8B8"/>
<path d="M68.5435 156.569L68.7848 163.594L73.3767 165.409C73.3767 165.409 73.827 158.216 74.4627 157.817C75.0983 157.418 68.5435 156.569 68.5435 156.569Z" fill="#FFB8B8"/>
<path d="M74.4981 166.273C74.4981 166.273 68.0918 159.865 66.4309 160.102C64.77 160.339 64.77 161.051 64.77 161.526C64.77 162.001 65.2446 162.238 64.77 162.476C64.2954 162.713 63.8209 162.476 63.8209 163.188C63.8209 163.9 59.55 171.021 60.9736 178.853C62.3973 186.686 64.0582 190.484 63.3464 194.757C62.6345 199.029 63.1091 199.979 63.1091 199.979C63.1091 199.979 80.9044 201.403 81.1417 199.741C81.379 198.08 80.4299 199.029 81.6162 197.842C82.8026 196.656 82.3281 196.656 82.3281 195.943C82.3281 195.231 77.1081 166.273 74.4981 166.273Z" fill="#575A89"/>
<path d="M71.1763 198.554C71.1763 198.554 74.0235 205.438 76.159 203.776C78.2944 202.115 75.2099 196.418 75.2099 196.418L71.1763 198.554Z" fill="#FFB8B8"/>
<path d="M64.2957 166.748C64.2957 166.748 58.721 167.387 60.7965 177.63C62.8721 187.873 70.9393 199.741 70.9393 199.741L76.3965 197.13L69.2784 183.126L70.9393 174.344C70.9393 174.344 71.8884 166.036 64.2957 166.748Z" fill="#575A89"/>
<path opacity="0.2" d="M69.1597 183.245L76.9896 196.3L76.2782 197.012L69.1597 183.245Z" fill="black"/>
<path opacity="0.2" d="M65.0151 189.328L71.2949 199.623H69.1594L65.0151 189.328Z" fill="black"/>
<path d="M70.3672 157.923C70.8303 157.735 71.3102 157.592 71.8004 157.496C72.6495 157.209 73.3677 156.626 73.8247 155.855C74.2817 155.084 74.4473 154.174 74.2914 153.291C74.2238 153.066 74.1934 152.832 74.2016 152.598C74.2687 152.345 74.4094 152.117 74.6057 151.944C74.802 151.771 75.0452 151.661 75.3045 151.626C75.8228 151.565 76.336 151.467 76.8403 151.333C77.2092 151.167 77.5284 150.908 77.7664 150.58C78.0044 150.253 78.153 149.869 78.1974 149.467C78.2751 148.658 78.0949 147.845 77.6827 147.144L77.499 147.673C77.2189 147.436 77.0109 147.124 76.8988 146.775C76.69 146.81 76.4937 146.898 76.3288 147.031C76.1638 147.163 76.0356 147.336 75.9566 147.533C75.6617 147.707 75.6192 146.992 75.2935 146.887C75.1503 146.869 75.0055 146.905 74.8869 146.987C74.2306 147.293 73.4681 147.032 72.7641 146.862C71.5449 146.569 70.2741 146.568 69.0543 146.858C68.2316 147.019 67.4715 147.41 66.8618 147.986C66.4083 148.501 66.0598 149.1 65.8362 149.749C65.1536 151.299 64.8692 152.994 65.0087 154.682C65.1796 156.05 65.752 157.338 66.6535 158.381C67.1231 158.922 68.6552 160.811 69.4953 160.489C70.551 160.084 69.1234 158.581 70.3672 157.923Z" fill="#2F2E41"/>
<path opacity="0.2" d="M79.2008 208.036L72.957 224.413L73.2725 224.533L79.5163 208.156L79.2008 208.036Z" fill="black"/>
<path d="M74.4645 167.576C74.6509 167.576 74.802 167.425 74.802 167.239C74.802 167.052 74.6509 166.901 74.4645 166.901C74.2781 166.901 74.127 167.052 74.127 167.239C74.127 167.425 74.2781 167.576 74.4645 167.576Z" fill="#D0CDE1"/>
<path d="M77.3337 176.693C77.2976 176.693 77.2625 176.682 77.2335 176.66C77.2045 176.639 77.1831 176.609 77.1725 176.574L74.3034 167.289C74.2902 167.246 74.2945 167.2 74.3154 167.16C74.3363 167.121 74.372 167.091 74.4148 167.078C74.4575 167.064 74.5038 167.069 74.5433 167.09C74.5829 167.11 74.6126 167.146 74.6258 167.189L77.4949 176.475C77.5026 176.5 77.5044 176.527 77.4999 176.553C77.4955 176.579 77.485 176.603 77.4693 176.625C77.4537 176.646 77.4332 176.663 77.4097 176.675C77.3861 176.687 77.3601 176.693 77.3337 176.693Z" fill="#D0CDE1"/>
<path d="M380.49 163.506C383.638 163.506 386.189 160.953 386.189 157.805C386.189 154.656 383.638 152.104 380.49 152.104C377.343 152.104 374.792 154.656 374.792 157.805C374.792 160.953 377.343 163.506 380.49 163.506Z" fill="#2F2E41"/>
<path d="M372.39 192.339L371.526 194.068C371.526 194.068 368.761 198.563 370.662 199.081C372.563 199.6 373.167 195.71 373.167 195.71L373.513 193.636L372.39 192.339Z" fill="#A0616A"/>
<path d="M375.846 183.523L373.686 189.227L371.526 193.203L374.205 194.932L376.365 191.129L378.957 185.165L375.846 183.523Z" fill="#D0CDE1"/>
<path d="M381.98 210.231L386.301 214.812L393.904 227.691L397.187 226.654L393.299 218.961C393.299 218.961 391.053 213.084 389.929 212.306C388.806 211.528 386.905 206.428 386.905 206.428L384.832 204.786L381.98 210.231Z" fill="#A0616A"/>
<path d="M373.081 212.738L372.735 214.207C372.735 214.207 371.612 218.788 369.884 220.863L365.737 228.037L362.626 226.999L368.761 212.479L373.081 212.738Z" fill="#A0616A"/>
<path d="M379.518 164.464C382.095 164.464 384.184 162.375 384.184 159.797C384.184 157.219 382.095 155.129 379.518 155.129C376.941 155.129 374.853 157.219 374.853 159.797C374.853 162.375 376.941 164.464 379.518 164.464Z" fill="#A0616A"/>
<path d="M383.19 162.087L383.795 167.101L379.907 169.002C379.907 169.002 379.907 164.68 378.87 163.557L383.19 162.087Z" fill="#A0616A"/>
<path d="M395.373 194.414L395.805 195.883C395.805 195.883 398.656 201.501 396.237 201.501C393.818 201.501 393.386 196.315 393.386 196.315L393.126 195.019L395.373 194.414Z" fill="#A0616A"/>
<path d="M375.5 188.536L376.105 192.771L368.761 208.243L368.329 212.738L382.067 214.466L385.091 206.082L389.929 212.306L387.165 205.909C387.165 205.909 386.301 201.588 386.56 200.464C386.819 199.34 386.387 193.722 385.609 192.339C384.832 190.956 375.5 188.536 375.5 188.536Z" fill="#2F2E41"/>
<path d="M393.385 227.691L397.533 226.308L398.829 228.383C398.829 228.383 401.334 229.074 401.248 230.889C401.26 232.54 401.405 234.188 401.68 235.816L399.866 235.989L399.174 232.445L395.632 236.68C395.632 236.68 389.325 237.026 389.065 235.989C388.806 234.952 393.558 233.828 393.558 233.828L394.336 230.111L393.385 227.691Z" fill="#2F2E41"/>
<path d="M362.368 226.481L366.169 227.691V228.555C366.169 228.555 367.292 230.284 367.12 231.753C366.947 233.223 366.169 236.767 366.169 236.767H364.182L364.268 233.482L360.294 236.767C360.294 236.767 353.209 236.248 353.209 235.124C353.209 234.001 358.652 233.223 358.652 233.223L362.368 226.481Z" fill="#2F2E41"/>
<path d="M379.648 167.965C379.648 167.965 383.19 164.421 384.832 165.285V166.841C384.832 166.841 387.251 167.965 387.337 169.693C387.424 171.422 389.929 187.153 389.929 187.153L395.805 207.638C395.805 207.638 393.99 210.49 387.337 207.292L383.19 193.204C383.19 193.204 387.597 209.108 385.436 208.848C383.276 208.589 374.809 188.882 374.809 188.882L375.414 179.547C375.414 179.547 374.031 175.485 376.796 172.719L379.648 167.965Z" fill="#D0CDE1"/>
<path d="M385.696 168.483C385.696 168.483 387.165 169.002 388.201 171.249C389.238 173.497 394.422 189.314 394.422 189.314L395.805 194.932L391.917 195.883L390.016 190.092L382.931 176.954C382.931 176.954 381.808 170.039 385.696 168.483Z" fill="#D0CDE1"/>
<path d="M385.354 156.073C385.335 155.537 385.184 155.013 384.915 154.549C384.647 154.084 384.268 153.693 383.812 153.409C384.286 152.456 384.71 151.369 384.397 150.352C384.271 149.957 384.041 149.603 383.732 149.327C383.423 149.05 383.046 148.861 382.64 148.779C382.187 148.716 381.727 148.722 381.275 148.796L379.146 149.038C378.449 149.065 377.767 149.249 377.15 149.575C376.845 149.769 376.589 150.032 376.403 150.342C376.217 150.653 376.107 151.003 376.081 151.364C376.055 151.725 376.114 152.087 376.253 152.421C376.393 152.755 376.609 153.051 376.883 153.287C375.394 154.479 374.398 155.383 373.721 157.167C374.857 156.24 376.277 155.732 377.744 155.726C378.74 155.672 379.719 156.009 380.471 156.666C381.223 157.322 381.69 158.246 381.772 159.241C381.763 159.74 381.807 160.239 381.903 160.729C381.958 160.973 382.094 161.191 382.29 161.347C382.486 161.503 382.729 161.587 382.979 161.585C382.91 161.595 382.488 160.327 382.785 159.742L382.79 159.732C382.855 159.611 382.963 159.519 383.092 159.473C383.208 159.428 383.331 159.409 383.455 159.416C383.578 159.424 383.699 159.457 383.808 159.514C383.918 159.572 384.014 159.652 384.09 159.749C384.166 159.846 384.221 159.959 384.251 160.079C384.416 160.714 384.68 161.524 384.911 161.309C385.214 161.027 385.087 158.544 385.168 158.159C385.331 157.476 385.394 156.774 385.354 156.073Z" fill="#2F2E41"/>
<path d="M383.788 153.392C383.788 153.392 379.106 153.697 376.866 153.29L383.788 153.392Z" fill="#D0CDE1"/>
<path d="M383.523 152.765C383.997 151.813 384.421 150.725 384.108 149.708C383.962 149.249 383.677 148.847 383.292 148.559C383.586 148.694 383.849 148.889 384.064 149.132C384.279 149.374 384.441 149.659 384.54 149.967C384.853 150.984 384.429 152.072 383.955 153.025C383.579 152.968 384.467 153.269 383.523 152.765Z" fill="#2F2E41"/>
<path opacity="0.2" d="M382.023 176.997L388.763 188.925L391.355 195.408L387.726 189.185L382.023 176.997Z" fill="black"/>
<path d="M63.4407 244.792C63.4407 244.792 61.3281 249.393 59.6127 250.683C57.8759 249.389 55.7219 244.792 55.7219 244.792C55.7219 244.792 53.6092 249.393 51.8939 250.683C50.157 249.389 48.003 244.792 48.003 244.792C48.003 244.792 42.003 250.928 42.0196 253.834C42.02 253.907 42.0241 253.979 42.0319 254.051C42.2367 255.954 48.44 256.439 51.8478 255.542C54.3882 256.122 57.0264 256.122 59.5667 255.542C62.9599 256.453 69.2895 255.931 69.4745 254.007C69.4815 253.935 69.4847 253.862 69.4843 253.79C69.4678 250.884 63.4407 244.792 63.4407 244.792Z" fill="#00AE8D"/>
<path d="M189.492 244.792C189.492 244.792 187.38 249.393 185.664 250.683C183.928 249.389 181.774 244.792 181.774 244.792C181.774 244.792 179.661 249.393 177.946 250.683C176.209 249.389 174.055 244.792 174.055 244.792C174.055 244.792 168.055 250.928 168.071 253.834C168.072 253.907 168.076 253.979 168.084 254.051C168.288 255.954 174.492 256.439 177.9 255.542C180.44 256.122 183.078 256.122 185.618 255.542C189.012 256.453 195.341 255.931 195.526 254.007C195.533 253.935 195.536 253.862 195.536 253.79C195.52 250.884 189.492 244.792 189.492 244.792Z" fill="#E6E6E6"/>
<path d="M314.729 244.792C314.729 244.792 312.616 249.393 310.901 250.683C309.164 249.389 307.01 244.792 307.01 244.792C307.01 244.792 304.897 249.393 303.182 250.683C301.445 249.389 299.291 244.792 299.291 244.792C299.291 244.792 293.291 250.928 293.308 253.834C293.308 253.907 293.312 253.979 293.32 254.051C293.525 255.954 299.728 256.439 303.136 255.542C305.676 256.122 308.314 256.122 310.855 255.542C314.248 256.453 320.578 255.931 320.763 254.007C320.77 253.935 320.773 253.862 320.772 253.79C320.756 250.884 314.729 244.792 314.729 244.792Z" fill="#00AE8D"/>
<path d="M71.0089 21.5877L70.9536 21.6178C70.3563 21.9446 69.6869 22.117 69.0061 22.1194C68.3253 22.1218 67.6546 21.9541 67.0551 21.6315C67.0205 21.6129 66.9861 21.5944 66.952 21.5763C66.3524 21.2561 65.6828 21.0898 65.0032 21.0921C64.3236 21.0945 63.6552 21.2654 63.0578 21.5897L63.0062 21.6178C62.4089 21.9446 61.7395 22.117 61.0587 22.1194C60.3779 22.1218 59.7073 21.9541 59.1077 21.6315C59.0718 21.6122 59.0362 21.5931 59.0007 21.5742C58.4082 21.2555 57.7462 21.0881 57.0735 21.0869C56.4008 21.0858 55.7382 21.2508 55.1446 21.5674C53.3313 22.5443 50.8799 24.2146 50.8907 26.1009C50.8911 26.1755 50.8953 26.25 50.9033 26.3242C51.1142 28.2831 57.5012 28.7823 61.0099 27.8591C63.6254 28.4561 66.3417 28.4561 68.9572 27.8591C72.4509 28.7971 78.9679 28.2597 79.1583 26.2783C79.1655 26.204 79.1689 26.1295 79.1685 26.0549C79.1577 24.1675 76.6846 22.5148 74.8599 21.5516C74.2646 21.24 73.6017 21.0803 72.9299 21.0866C72.2581 21.0929 71.5982 21.265 71.0089 21.5877Z" fill="#E6E6E6"/>
<path d="M189.707 42.2918L189.652 42.3219C189.055 42.6487 188.385 42.8211 187.704 42.8235C187.024 42.8259 186.353 42.6582 185.753 42.3356C185.719 42.317 185.684 42.2985 185.65 42.2804C185.051 41.9602 184.381 41.7939 183.701 41.7962C183.022 41.7986 182.353 41.9695 181.756 42.2938L181.705 42.3219C181.107 42.6487 180.438 42.8211 179.757 42.8235C179.076 42.8259 178.406 42.6582 177.806 42.3356C177.77 42.3163 177.734 42.2971 177.699 42.2783C177.106 41.9596 176.444 41.7922 175.772 41.7911C175.099 41.7899 174.436 41.9549 173.843 42.2715C172.03 43.2484 169.578 44.9187 169.589 46.805C169.589 46.8796 169.594 46.9541 169.602 47.0283C169.812 48.9873 176.199 49.4864 179.708 48.5632C182.324 49.1602 185.04 49.1602 187.655 48.5632C191.149 49.5012 197.666 48.9638 197.857 46.9824C197.864 46.9081 197.867 46.8336 197.867 46.759C197.856 44.8717 195.383 43.2189 193.558 42.2557C192.963 41.9441 192.3 41.7844 191.628 41.7907C190.956 41.797 190.296 41.9691 189.707 42.2918Z" fill="#E6E6E6"/>
<path d="M271.745 22.4859L271.69 22.516C271.093 22.8428 270.423 23.0152 269.742 23.0176C269.062 23.02 268.391 22.8523 267.791 22.5297C267.757 22.511 267.722 22.4926 267.688 22.4745C267.089 22.1543 266.419 21.988 265.74 21.9903C265.06 21.9927 264.392 22.1636 263.794 22.4879L263.743 22.516C263.145 22.8428 262.476 23.0152 261.795 23.0176C261.114 23.02 260.444 22.8523 259.844 22.5297C259.808 22.5103 259.773 22.4912 259.737 22.4724C259.145 22.1537 258.483 21.9863 257.81 21.9851C257.137 21.9839 256.475 22.149 255.881 22.4655C254.068 23.4425 251.616 25.1128 251.627 26.9991C251.627 27.0737 251.632 27.1482 251.64 27.2224C251.85 29.1813 258.238 29.6805 261.746 28.7573C264.362 29.3543 267.078 29.3543 269.694 28.7573C273.187 29.6953 279.704 29.1579 279.895 27.1765C279.902 27.1022 279.905 27.0277 279.905 26.9531C279.894 25.0657 277.421 23.413 275.596 22.4498C275.001 22.1382 274.338 21.9785 273.666 21.9848C272.994 21.9911 272.335 22.1632 271.745 22.4859Z" fill="#E6E6E6"/>
<path d="M419.618 255.236H0V256H419.618V255.236Z" fill="#3F3D56"/>
</svg>
