<svg width="156" height="39" viewBox="0 0 1189 245" fill="none" xmlns="http://www.w3.org/2000/svg">
<path d="M349.659 128.501C344.054 128.501 339.103 127.81 334.808 126.426C330.513 124.97 326.873 122.823 323.888 119.984C320.976 117.144 318.756 113.614 317.227 109.391C315.771 105.096 315.043 100.146 315.043 94.54V59.4868C315.043 56.138 315.916 53.6264 317.664 51.952C319.411 50.2048 321.886 49.3312 325.089 49.3312C328.365 49.3312 330.84 50.2048 332.515 51.952C334.262 53.6264 335.136 56.138 335.136 59.4868V94.7584C335.136 100.364 336.373 104.586 338.848 107.426C341.324 110.265 344.927 111.684 349.659 111.684C354.318 111.684 357.886 110.265 360.361 107.426C362.836 104.586 364.074 100.364 364.074 94.7584V59.4868C364.074 56.138 364.911 53.6264 366.585 51.952C368.332 50.2048 370.808 49.3312 374.011 49.3312C377.214 49.3312 379.653 50.2048 381.327 51.952C383.002 53.6264 383.839 56.138 383.839 59.4868V94.54C383.839 102.038 382.528 108.336 379.908 113.432C377.36 118.455 373.538 122.24 368.442 124.788C363.346 127.264 357.085 128.501 349.659 128.501ZM425.449 128.283C422.246 128.283 419.771 127.409 418.024 125.662C416.276 123.842 415.403 121.33 415.403 118.127V66.694H398.258C395.565 66.694 393.49 66.0024 392.034 64.6192C390.651 63.1632 389.959 61.1248 389.959 58.504C389.959 55.8104 390.651 53.772 392.034 52.3888C393.49 51.0056 395.565 50.314 398.258 50.314H452.64C455.334 50.314 457.372 51.0056 458.755 52.3888C460.211 53.772 460.939 55.8104 460.939 58.504C460.939 61.1248 460.211 63.1632 458.755 64.6192C457.372 66.0024 455.334 66.694 452.64 66.694H435.496V118.127C435.496 121.33 434.658 123.842 432.984 125.662C431.31 127.409 428.798 128.283 425.449 128.283ZM508.844 128.283C505.641 128.283 503.165 127.409 501.418 125.662C499.671 123.842 498.797 121.33 498.797 118.127V60.4696C498.797 57.1936 499.671 54.682 501.418 52.9348C503.238 51.1876 505.75 50.314 508.953 50.314H535.816C544.552 50.314 551.286 52.4616 556.018 56.7568C560.823 60.9792 563.225 66.876 563.225 74.4472C563.225 79.3248 562.133 83.5836 559.949 87.2236C557.838 90.7908 554.744 93.5572 550.667 95.5228C546.663 97.4156 541.713 98.362 535.816 98.362L536.69 96.3964H541.931C545.062 96.3964 547.828 97.1608 550.231 98.6896C552.633 100.146 554.635 102.402 556.237 105.46L561.697 115.288C562.861 117.399 563.407 119.474 563.335 121.512C563.262 123.478 562.461 125.116 560.932 126.426C559.476 127.664 557.329 128.283 554.489 128.283C551.65 128.283 549.321 127.7 547.501 126.536C545.753 125.371 544.188 123.551 542.805 121.076L532.868 102.839C531.994 101.238 530.866 100.146 529.483 99.5632C528.172 98.908 526.643 98.5804 524.896 98.5804H518.89V118.127C518.89 121.33 518.053 123.842 516.379 125.662C514.704 127.409 512.193 128.283 508.844 128.283ZM518.89 84.3844H532.213C536.071 84.3844 539.019 83.62 541.058 82.0912C543.096 80.5624 544.115 78.1964 544.115 74.9932C544.115 71.9356 543.096 69.6424 541.058 68.1136C539.019 66.512 536.071 65.7112 532.213 65.7112H518.89V84.3844ZM602.361 128.501C595.809 128.501 590.13 127.373 585.326 125.116C580.594 122.786 576.954 119.51 574.406 115.288C571.858 111.066 570.584 106.079 570.584 100.328C570.584 94.7948 571.785 89.9536 574.187 85.804C576.662 81.5816 580.011 78.3056 584.234 75.976C588.529 73.5736 593.406 72.3724 598.866 72.3724C602.87 72.3724 606.51 73.0276 609.786 74.338C613.062 75.5756 615.865 77.432 618.195 79.9072C620.524 82.3096 622.272 85.2216 623.436 88.6432C624.674 92.0648 625.293 95.8868 625.293 100.109C625.293 101.565 624.892 102.657 624.092 103.385C623.291 104.04 622.017 104.368 620.27 104.368H586.854V95.1952H611.097L609.35 96.6148C609.35 93.9212 608.986 91.7372 608.258 90.0628C607.53 88.3884 606.438 87.1144 604.982 86.2408C603.598 85.3672 601.851 84.9304 599.74 84.9304C597.483 84.9304 595.518 85.4764 593.843 86.5684C592.242 87.5876 591.004 89.1164 590.13 91.1548C589.257 93.1932 588.82 95.7412 588.82 98.7988V99.7816C588.82 104.95 589.948 108.663 592.205 110.92C594.535 113.104 598.102 114.196 602.907 114.196C604.508 114.196 606.328 114.014 608.367 113.65C610.478 113.213 612.48 112.631 614.373 111.903C616.266 111.175 617.904 111.066 619.287 111.575C620.67 112.012 621.726 112.813 622.454 113.978C623.254 115.07 623.691 116.344 623.764 117.8C623.837 119.183 623.509 120.566 622.781 121.949C622.053 123.26 620.852 124.279 619.178 125.007C616.63 126.172 613.9 127.045 610.988 127.628C608.148 128.21 605.273 128.501 602.361 128.501ZM661.076 128.501C655.034 128.501 649.756 127.373 645.242 125.116C640.801 122.859 637.343 119.62 634.868 115.397C632.393 111.102 631.155 106.079 631.155 100.328C631.155 95.9596 631.847 92.0648 633.23 88.6432C634.613 85.1488 636.615 82.2004 639.236 79.798C641.93 77.3956 645.097 75.5756 648.737 74.338C652.449 73.0276 656.563 72.3724 661.076 72.3724C663.187 72.3724 665.408 72.5908 667.737 73.0276C670.067 73.3916 672.469 74.1196 674.945 75.2116C676.692 75.8668 677.893 76.886 678.548 78.2692C679.276 79.5796 679.567 80.9992 679.422 82.528C679.349 84.0568 678.912 85.44 678.111 86.6776C677.383 87.9152 676.328 88.7524 674.945 89.1892C673.634 89.626 672.142 89.444 670.467 88.6432C669.303 88.0608 668.065 87.6604 666.755 87.442C665.517 87.1508 664.316 87.0052 663.151 87.0052C661.185 87.0052 659.438 87.2964 657.909 87.8788C656.453 88.4612 655.216 89.3348 654.197 90.4996C653.177 91.5916 652.377 92.9748 651.794 94.6492C651.285 96.3236 651.03 98.2164 651.03 100.328C651.03 104.55 652.085 107.862 654.197 110.265C656.308 112.667 659.293 113.868 663.151 113.868C664.316 113.868 665.517 113.759 666.755 113.541C667.992 113.25 669.23 112.813 670.467 112.23C672.142 111.43 673.634 111.284 674.945 111.794C676.255 112.23 677.311 113.068 678.111 114.305C678.912 115.543 679.349 116.926 679.422 118.455C679.495 119.911 679.167 121.33 678.439 122.714C677.711 124.024 676.473 125.007 674.726 125.662C672.324 126.754 669.958 127.482 667.628 127.846C665.371 128.283 663.187 128.501 661.076 128.501ZM705.127 128.501C700.978 128.501 697.301 127.737 694.098 126.208C690.968 124.679 688.493 122.604 686.673 119.984C684.925 117.29 684.052 114.232 684.052 110.811C684.052 106.88 685.071 103.786 687.109 101.529C689.148 99.272 692.424 97.6704 696.937 96.724C701.451 95.7048 707.457 95.1952 714.955 95.1952H720.961V104.368H714.955C712.116 104.368 709.75 104.586 707.857 105.023C706.037 105.387 704.691 106.006 703.817 106.88C702.943 107.68 702.507 108.736 702.507 110.046C702.507 111.721 703.089 113.104 704.254 114.196C705.491 115.288 707.239 115.834 709.495 115.834C711.315 115.834 712.917 115.434 714.3 114.633C715.756 113.832 716.921 112.74 717.795 111.357C718.668 109.901 719.105 108.226 719.105 106.334V93.6664C719.105 91.0456 718.413 89.1892 717.03 88.0972C715.72 87.0052 713.427 86.4592 710.151 86.4592C708.403 86.4592 706.438 86.6776 704.254 87.1144C702.07 87.4784 699.631 88.17 696.937 89.1892C694.972 89.9172 693.297 90.0264 691.914 89.5168C690.531 89.0072 689.439 88.1336 688.638 86.896C687.91 85.6584 687.546 84.3116 687.546 82.8556C687.619 81.3996 688.092 80.0164 688.966 78.706C689.912 77.3956 691.332 76.3764 693.225 75.6484C696.719 74.338 699.922 73.4644 702.834 73.0276C705.819 72.5908 708.549 72.3724 711.024 72.3724C716.994 72.3724 721.908 73.246 725.766 74.9932C729.697 76.6676 732.609 79.2884 734.502 82.8556C736.468 86.35 737.451 90.8636 737.451 96.3964V118.455C737.451 121.658 736.686 124.097 735.157 125.771C733.629 127.446 731.408 128.283 728.496 128.283C725.511 128.283 723.218 127.446 721.617 125.771C720.088 124.097 719.323 121.658 719.323 118.455V115.616L719.979 117.144C719.615 119.474 718.777 121.476 717.467 123.15C716.157 124.825 714.446 126.135 712.335 127.082C710.223 128.028 707.821 128.501 705.127 128.501ZM768.612 128.501C763.953 128.501 760.131 127.664 757.146 125.99C754.161 124.242 751.904 121.658 750.375 118.236C748.919 114.815 748.191 110.483 748.191 105.242V82.3096C748.191 79.1064 749.029 76.704 750.703 75.1024C752.377 73.428 754.78 72.5908 757.91 72.5908C761.041 72.5908 763.443 73.428 765.117 75.1024C766.792 76.704 767.629 79.1064 767.629 82.3096V105.788C767.629 108.408 768.175 110.374 769.267 111.684C770.359 112.995 772.07 113.65 774.399 113.65C777.02 113.65 779.168 112.704 780.842 110.811C782.517 108.918 783.354 106.406 783.354 103.276V82.3096C783.354 79.1064 784.191 76.704 785.865 75.1024C787.54 73.428 789.942 72.5908 793.073 72.5908C796.203 72.5908 798.605 73.428 800.28 75.1024C801.954 76.704 802.791 79.1064 802.791 82.3096V118.455C802.791 125.007 799.661 128.283 793.4 128.283C790.343 128.283 787.977 127.446 786.302 125.771C784.628 124.097 783.791 121.658 783.791 118.455V112.121L785.538 117.472C783.936 121.039 781.679 123.769 778.767 125.662C775.928 127.555 772.543 128.501 768.612 128.501ZM835.069 128.501C830.483 128.501 826.406 127.373 822.839 125.116C819.345 122.859 816.578 119.62 814.54 115.397C812.574 111.175 811.591 106.188 811.591 100.437C811.591 94.54 812.574 89.5168 814.54 85.3672C816.578 81.2176 819.345 78.0144 822.839 75.7576C826.406 73.5008 830.483 72.3724 835.069 72.3724C839.073 72.3724 842.677 73.3188 845.88 75.2116C849.083 77.1044 851.231 79.5432 852.323 82.528H851.122V59.1592C851.122 55.956 851.959 53.5172 853.633 51.8428C855.308 50.1684 857.71 49.3312 860.841 49.3312C863.898 49.3312 866.264 50.1684 867.939 51.8428C869.686 53.5172 870.559 55.956 870.559 59.1592V118.455C870.559 121.658 869.722 124.097 868.048 125.771C866.446 127.446 864.08 128.283 860.95 128.283C857.892 128.283 855.526 127.446 853.852 125.771C852.177 124.097 851.34 121.658 851.34 118.455V112.23L852.541 117.581C851.522 120.857 849.375 123.514 846.099 125.553C842.895 127.518 839.219 128.501 835.069 128.501ZM841.294 114.196C843.259 114.196 845.007 113.723 846.535 112.776C848.064 111.757 849.229 110.265 850.03 108.299C850.903 106.261 851.34 103.64 851.34 100.437C851.34 95.5592 850.394 92.0648 848.501 89.9536C846.608 87.7696 844.206 86.6776 841.294 86.6776C839.328 86.6776 837.581 87.1508 836.052 88.0972C834.523 89.0436 833.322 90.536 832.449 92.5744C831.575 94.54 831.138 97.1608 831.138 100.437C831.138 105.242 832.085 108.736 833.977 110.92C835.87 113.104 838.309 114.196 841.294 114.196ZM909.011 128.501C903.041 128.501 897.836 127.373 893.395 125.116C888.954 122.859 885.496 119.62 883.021 115.397C880.546 111.175 879.308 106.188 879.308 100.437C879.308 96.0688 880 92.174 881.383 88.7524C882.766 85.258 884.768 82.3096 887.389 79.9072C890.01 77.432 893.14 75.5756 896.78 74.338C900.42 73.0276 904.497 72.3724 909.011 72.3724C914.98 72.3724 920.185 73.5008 924.626 75.7576C929.067 78.0144 932.489 81.254 934.891 85.4764C937.366 89.626 938.604 94.6128 938.604 100.437C938.604 104.732 937.912 108.627 936.529 112.121C935.146 115.616 933.144 118.6 930.523 121.076C927.975 123.478 924.845 125.334 921.132 126.645C917.492 127.882 913.451 128.501 909.011 128.501ZM909.011 114.196C910.976 114.196 912.723 113.723 914.252 112.776C915.781 111.757 916.946 110.265 917.747 108.299C918.62 106.261 919.057 103.64 919.057 100.437C919.057 95.5592 918.111 92.0648 916.218 89.9536C914.325 87.7696 911.923 86.6776 909.011 86.6776C907.045 86.6776 905.298 87.1508 903.769 88.0972C902.24 89.0436 901.039 90.536 900.165 92.5744C899.292 94.54 898.855 97.1608 898.855 100.437C898.855 105.242 899.801 108.736 901.694 110.92C903.587 113.104 906.026 114.196 909.011 114.196ZM1008.24 128.283C1005.04 128.283 1002.56 127.409 1000.81 125.662C999.067 123.842 998.194 121.33 998.194 118.127V66.694H981.049C978.356 66.694 976.281 66.0024 974.825 64.6192C973.442 63.1632 972.75 61.1248 972.75 58.504C972.75 55.8104 973.442 53.772 974.825 52.3888C976.281 51.0056 978.356 50.314 981.049 50.314H1035.43C1038.12 50.314 1040.16 51.0056 1041.55 52.3888C1043 53.772 1043.73 55.8104 1043.73 58.504C1043.73 61.1248 1043 63.1632 1041.55 64.6192C1040.16 66.0024 1038.12 66.694 1035.43 66.694H1018.29V118.127C1018.29 121.33 1017.45 123.842 1015.77 125.662C1014.1 127.409 1011.59 128.283 1008.24 128.283ZM1060.39 128.283C1057.19 128.283 1054.71 127.409 1052.96 125.662C1051.22 123.842 1050.34 121.33 1050.34 118.127V60.4696C1050.34 57.1936 1051.22 54.682 1052.96 52.9348C1054.78 51.1876 1057.3 50.314 1060.5 50.314H1087.36C1096.1 50.314 1102.83 52.5708 1107.56 57.0844C1112.37 61.5252 1114.77 67.6768 1114.77 75.5392C1114.77 83.4016 1112.37 89.5896 1107.56 94.1032C1102.83 98.544 1096.1 100.764 1087.36 100.764H1070.44V118.127C1070.44 121.33 1069.6 123.842 1067.92 125.662C1066.25 127.409 1063.74 128.283 1060.39 128.283ZM1070.44 85.3672H1083.87C1087.65 85.3672 1090.56 84.5664 1092.6 82.9648C1094.64 81.2904 1095.66 78.8152 1095.66 75.5392C1095.66 72.1904 1094.64 69.7152 1092.6 68.1136C1090.56 66.512 1087.65 65.7112 1083.87 65.7112H1070.44V85.3672ZM1152.75 128.501C1149.84 128.501 1146.78 128.283 1143.58 127.846C1140.45 127.482 1137.46 126.9 1134.62 126.099C1131.78 125.298 1129.23 124.352 1126.98 123.26C1125.01 122.313 1123.63 121.076 1122.83 119.547C1122.03 117.945 1121.74 116.271 1121.95 114.524C1122.17 112.776 1122.79 111.248 1123.81 109.937C1124.83 108.554 1126.18 107.644 1127.85 107.207C1129.53 106.698 1131.42 106.916 1133.53 107.862C1136.3 109.173 1139.43 110.192 1142.92 110.92C1146.41 111.648 1149.69 112.012 1152.75 112.012C1157.55 112.012 1160.9 111.393 1162.79 110.156C1164.76 108.845 1165.74 107.244 1165.74 105.351C1165.74 103.676 1165.05 102.33 1163.67 101.31C1162.36 100.291 1159.99 99.4176 1156.57 98.6896L1143.79 95.9596C1136.81 94.5036 1131.6 91.9556 1128.18 88.3156C1124.76 84.6756 1123.05 79.98 1123.05 74.2288C1123.05 70.4432 1123.81 67.0216 1125.34 63.964C1126.94 60.8336 1129.16 58.1764 1132 55.9924C1134.91 53.8084 1138.33 52.134 1142.27 50.9692C1146.27 49.7316 1150.71 49.1128 1155.59 49.1128C1159.37 49.1128 1163.2 49.5496 1167.05 50.4232C1170.98 51.224 1174.37 52.4616 1177.21 54.136C1178.88 55.0096 1180.08 56.2108 1180.81 57.7396C1181.54 59.2684 1181.83 60.87 1181.69 62.5444C1181.54 64.146 1180.96 65.5656 1179.94 66.8032C1178.99 68.0408 1177.68 68.878 1176.01 69.3148C1174.41 69.6788 1172.48 69.3876 1170.22 68.4412C1168.11 67.4948 1165.71 66.8032 1163.01 66.3664C1160.39 65.8568 1157.84 65.602 1155.37 65.602C1152.68 65.602 1150.38 65.9296 1148.49 66.5848C1146.6 67.1672 1145.14 68.0408 1144.12 69.2056C1143.18 70.3704 1142.7 71.7172 1142.7 73.246C1142.7 74.7748 1143.32 76.0852 1144.56 77.1772C1145.87 78.1964 1148.23 79.07 1151.66 79.798L1164.32 82.528C1171.39 84.0568 1176.66 86.5684 1180.16 90.0628C1183.65 93.5572 1185.4 98.1072 1185.4 103.713C1185.4 107.498 1184.63 110.92 1183.11 113.978C1181.58 117.035 1179.39 119.656 1176.55 121.84C1173.71 123.951 1170.29 125.589 1166.29 126.754C1162.29 127.919 1157.77 128.501 1152.75 128.501Z" fill="#004A81"/>
<path d="M561.854 220.524C559.978 220.524 558.008 220.383 555.945 220.102C553.928 219.867 552.005 219.492 550.176 218.976C548.347 218.46 546.705 217.851 545.251 217.147C543.985 216.537 543.094 215.74 542.578 214.755C542.062 213.723 541.875 212.645 542.015 211.519C542.156 210.393 542.555 209.409 543.211 208.564C543.868 207.673 544.736 207.087 545.814 206.806C546.893 206.477 548.112 206.618 549.472 207.228C551.255 208.072 553.271 208.728 555.523 209.197C557.774 209.667 559.884 209.901 561.854 209.901C564.949 209.901 567.107 209.502 568.326 208.705C569.593 207.861 570.226 206.829 570.226 205.61C570.226 204.531 569.78 203.663 568.889 203.007C568.045 202.35 566.521 201.787 564.316 201.318L556.085 199.56C551.583 198.622 548.23 196.98 546.025 194.635C543.821 192.29 542.719 189.265 542.719 185.56C542.719 183.121 543.211 180.917 544.196 178.947C545.228 176.93 546.658 175.218 548.488 173.811C550.364 172.404 552.568 171.326 555.1 170.575C557.68 169.778 560.541 169.379 563.683 169.379C566.122 169.379 568.584 169.661 571.07 170.224C573.603 170.739 575.783 171.537 577.612 172.615C578.691 173.178 579.465 173.952 579.934 174.937C580.403 175.922 580.591 176.954 580.497 178.032C580.403 179.064 580.028 179.979 579.371 180.776C578.762 181.573 577.917 182.113 576.839 182.394C575.807 182.629 574.564 182.441 573.11 181.831C571.75 181.222 570.202 180.776 568.467 180.495C566.779 180.166 565.137 180.002 563.542 180.002C561.807 180.002 560.33 180.213 559.11 180.635C557.891 181.011 556.953 181.573 556.296 182.324C555.687 183.074 555.382 183.942 555.382 184.927C555.382 185.912 555.781 186.756 556.578 187.459C557.422 188.116 558.946 188.679 561.151 189.148L569.311 190.906C573.86 191.891 577.261 193.509 579.512 195.761C581.763 198.012 582.889 200.943 582.889 204.554C582.889 206.993 582.396 209.197 581.411 211.167C580.426 213.137 579.019 214.825 577.19 216.233C575.361 217.593 573.157 218.648 570.577 219.398C567.998 220.149 565.09 220.524 561.854 220.524ZM600.432 220.524C597.758 220.524 595.39 220.031 593.326 219.046C591.31 218.062 589.715 216.725 588.543 215.037C587.417 213.301 586.854 211.331 586.854 209.127C586.854 206.595 587.511 204.601 588.824 203.147C590.137 201.693 592.248 200.662 595.155 200.052C598.063 199.395 601.933 199.067 606.763 199.067H610.632V204.976H606.763C604.934 204.976 603.41 205.117 602.19 205.399C601.018 205.633 600.15 206.032 599.588 206.595C599.025 207.11 598.743 207.79 598.743 208.635C598.743 209.713 599.119 210.604 599.869 211.308C600.666 212.011 601.792 212.363 603.246 212.363C604.418 212.363 605.45 212.105 606.341 211.589C607.279 211.073 608.03 210.37 608.592 209.479C609.155 208.541 609.437 207.462 609.437 206.243V198.082C609.437 196.394 608.991 195.198 608.1 194.494C607.256 193.791 605.778 193.439 603.668 193.439C602.542 193.439 601.276 193.58 599.869 193.861C598.462 194.096 596.891 194.541 595.155 195.198C593.889 195.667 592.81 195.737 591.919 195.409C591.028 195.081 590.325 194.518 589.809 193.721C589.34 192.923 589.105 192.056 589.105 191.118C589.152 190.18 589.457 189.288 590.02 188.444C590.63 187.6 591.544 186.943 592.764 186.474C595.015 185.63 597.078 185.067 598.954 184.786C600.877 184.505 602.636 184.364 604.231 184.364C608.076 184.364 611.242 184.927 613.728 186.052C616.26 187.131 618.136 188.819 619.356 191.118C620.622 193.369 621.255 196.277 621.255 199.841V214.052C621.255 216.115 620.763 217.686 619.778 218.765C618.793 219.844 617.363 220.383 615.487 220.383C613.564 220.383 612.086 219.844 611.055 218.765C610.07 217.686 609.577 216.115 609.577 214.052V212.223L609.999 213.207C609.765 214.708 609.225 215.998 608.381 217.077C607.537 218.155 606.435 219 605.075 219.609C603.715 220.219 602.167 220.524 600.432 220.524ZM634.577 220.383C632.607 220.383 631.083 219.844 630.004 218.765C628.925 217.686 628.386 216.115 628.386 214.052V190.766C628.386 188.749 628.902 187.201 629.934 186.123C631.012 185.044 632.537 184.505 634.506 184.505C636.476 184.505 637.977 185.044 639.009 186.123C640.041 187.201 640.556 188.749 640.556 190.766V194.072L639.783 191.188C640.908 188.984 642.503 187.295 644.566 186.123C646.677 184.95 649.069 184.364 651.742 184.364C654.509 184.364 656.784 184.903 658.566 185.982C660.348 187.014 661.685 188.655 662.576 190.906C663.467 193.111 663.913 195.901 663.913 199.278V214.052C663.913 216.115 663.373 217.686 662.295 218.765C661.216 219.844 659.668 220.383 657.652 220.383C655.635 220.383 654.087 219.844 653.008 218.765C651.93 217.686 651.39 216.115 651.39 214.052V199.771C651.39 197.66 651.015 196.159 650.265 195.268C649.561 194.377 648.506 193.932 647.099 193.932C645.223 193.932 643.722 194.541 642.597 195.761C641.471 196.933 640.908 198.528 640.908 200.544V214.052C640.908 218.273 638.798 220.383 634.577 220.383ZM689.2 220.524C685.682 220.524 682.774 219.985 680.476 218.906C678.225 217.827 676.537 216.209 675.411 214.052C674.285 211.847 673.723 209.104 673.723 205.821V194.354H671.331C669.83 194.354 668.657 193.955 667.813 193.158C667.016 192.36 666.617 191.211 666.617 189.711C666.617 188.21 667.016 187.084 667.813 186.334C668.657 185.536 669.83 185.138 671.331 185.138H673.723V180.776C673.723 178.712 674.262 177.141 675.341 176.063C676.419 174.984 677.967 174.445 679.984 174.445C682.001 174.445 683.548 174.984 684.627 176.063C685.706 177.141 686.245 178.712 686.245 180.776V185.138H692.014C693.561 185.138 694.734 185.536 695.531 186.334C696.375 187.084 696.797 188.21 696.797 189.711C696.797 191.211 696.375 192.36 695.531 193.158C694.734 193.955 693.561 194.354 692.014 194.354H686.245V205.399C686.245 207.134 686.644 208.424 687.441 209.268C688.285 210.065 689.598 210.464 691.381 210.464C692.037 210.464 692.67 210.393 693.28 210.253C693.89 210.112 694.452 210.042 694.968 210.042C695.719 209.995 696.328 210.229 696.797 210.745C697.266 211.214 697.501 212.316 697.501 214.052C697.501 215.459 697.29 216.655 696.868 217.639C696.446 218.577 695.695 219.258 694.617 219.68C693.96 219.914 693.069 220.102 691.943 220.242C690.818 220.43 689.903 220.524 689.2 220.524ZM713.033 220.524C710.36 220.524 707.991 220.031 705.928 219.046C703.911 218.062 702.316 216.725 701.144 215.037C700.018 213.301 699.455 211.331 699.455 209.127C699.455 206.595 700.112 204.601 701.425 203.147C702.738 201.693 704.849 200.662 707.757 200.052C710.664 199.395 714.534 199.067 719.364 199.067H723.234V204.976H719.364C717.535 204.976 716.011 205.117 714.792 205.399C713.619 205.633 712.752 206.032 712.189 206.595C711.626 207.11 711.345 207.79 711.345 208.635C711.345 209.713 711.72 210.604 712.47 211.308C713.267 212.011 714.393 212.363 715.847 212.363C717.019 212.363 718.051 212.105 718.942 211.589C719.88 211.073 720.631 210.37 721.194 209.479C721.756 208.541 722.038 207.462 722.038 206.243V198.082C722.038 196.394 721.592 195.198 720.701 194.494C719.857 193.791 718.38 193.439 716.269 193.439C715.143 193.439 713.877 193.58 712.47 193.861C711.063 194.096 709.492 194.541 707.757 195.198C706.49 195.667 705.412 195.737 704.521 195.409C703.629 195.081 702.926 194.518 702.41 193.721C701.941 192.923 701.707 192.056 701.707 191.118C701.753 190.18 702.058 189.288 702.621 188.444C703.231 187.6 704.145 186.943 705.365 186.474C707.616 185.63 709.68 185.067 711.556 184.786C713.478 184.505 715.237 184.364 716.832 184.364C720.678 184.364 723.843 184.927 726.329 186.052C728.862 187.131 730.738 188.819 731.957 191.118C733.223 193.369 733.857 196.277 733.857 199.841V214.052C733.857 216.115 733.364 217.686 732.379 218.765C731.394 219.844 729.964 220.383 728.088 220.383C726.165 220.383 724.688 219.844 723.656 218.765C722.671 217.686 722.178 216.115 722.178 214.052V212.223L722.601 213.207C722.366 214.708 721.827 215.998 720.982 217.077C720.138 218.155 719.036 219 717.676 219.609C716.316 220.219 714.768 220.524 713.033 220.524ZM767.941 220.383C766.065 220.383 764.611 219.867 763.579 218.835C762.594 217.804 762.102 216.35 762.102 214.474V175.429C762.102 173.507 762.641 172.053 763.72 171.068C764.798 170.036 766.323 169.52 768.292 169.52C769.934 169.52 771.224 169.848 772.162 170.505C773.146 171.115 774.038 172.146 774.835 173.6L789.96 200.755H787.498L802.553 173.6C803.397 172.146 804.288 171.115 805.226 170.505C806.211 169.848 807.524 169.52 809.166 169.52C811.042 169.52 812.472 170.036 813.457 171.068C814.489 172.053 815.005 173.507 815.005 175.429V214.474C815.005 216.35 814.512 217.804 813.527 218.835C812.542 219.867 811.089 220.383 809.166 220.383C807.29 220.383 805.836 219.867 804.804 218.835C803.819 217.804 803.327 216.35 803.327 214.474V190.273H804.804L793.478 209.971C792.821 211.003 792.118 211.777 791.367 212.293C790.664 212.809 789.702 213.067 788.483 213.067C787.31 213.067 786.349 212.809 785.598 212.293C784.848 211.777 784.168 211.003 783.558 209.971L772.162 190.203H773.78V214.474C773.78 216.35 773.287 217.804 772.302 218.835C771.317 219.867 769.863 220.383 767.941 220.383ZM835.321 220.524C832.648 220.524 830.279 220.031 828.216 219.046C826.199 218.062 824.604 216.725 823.432 215.037C822.306 213.301 821.743 211.331 821.743 209.127C821.743 206.595 822.4 204.601 823.713 203.147C825.026 201.693 827.137 200.662 830.045 200.052C832.953 199.395 836.822 199.067 841.653 199.067H845.522V204.976H841.653C839.823 204.976 838.299 205.117 837.08 205.399C835.907 205.633 835.04 206.032 834.477 206.595C833.914 207.11 833.633 207.79 833.633 208.635C833.633 209.713 834.008 210.604 834.758 211.308C835.556 212.011 836.681 212.363 838.135 212.363C839.308 212.363 840.339 212.105 841.23 211.589C842.168 211.073 842.919 210.37 843.482 209.479C844.044 208.541 844.326 207.462 844.326 206.243V198.082C844.326 196.394 843.88 195.198 842.989 194.494C842.145 193.791 840.668 193.439 838.557 193.439C837.432 193.439 836.165 193.58 834.758 193.861C833.351 194.096 831.78 194.541 830.045 195.198C828.778 195.667 827.7 195.737 826.809 195.409C825.918 195.081 825.214 194.518 824.698 193.721C824.229 192.923 823.995 192.056 823.995 191.118C824.042 190.18 824.346 189.288 824.909 188.444C825.519 187.6 826.433 186.943 827.653 186.474C829.904 185.63 831.968 185.067 833.844 184.786C835.767 184.505 837.525 184.364 839.12 184.364C842.966 184.364 846.131 184.927 848.617 186.052C851.15 187.131 853.026 188.819 854.245 191.118C855.511 193.369 856.145 196.277 856.145 199.841V214.052C856.145 216.115 855.652 217.686 854.667 218.765C853.682 219.844 852.252 220.383 850.376 220.383C848.453 220.383 846.976 219.844 845.944 218.765C844.959 217.686 844.467 216.115 844.467 214.052V212.223L844.889 213.207C844.654 214.708 844.115 215.998 843.271 217.077C842.426 218.155 841.324 219 839.964 219.609C838.604 220.219 837.056 220.524 835.321 220.524ZM869.677 220.383C867.613 220.383 866.019 219.844 864.893 218.765C863.815 217.686 863.275 216.115 863.275 214.052V190.766C863.275 188.749 863.791 187.201 864.823 186.123C865.902 185.044 867.426 184.505 869.396 184.505C871.365 184.505 872.866 185.044 873.898 186.123C874.93 187.201 875.446 188.749 875.446 190.766V193.65H874.742C875.211 190.836 876.407 188.608 878.33 186.967C880.3 185.325 882.739 184.458 885.647 184.364C887.007 184.317 888.015 184.669 888.672 185.419C889.375 186.123 889.75 187.459 889.797 189.429C889.797 191.118 889.445 192.454 888.742 193.439C888.038 194.424 886.702 195.01 884.732 195.198L883.114 195.339C880.628 195.573 878.823 196.277 877.697 197.449C876.571 198.575 876.009 200.263 876.009 202.514V214.052C876.009 216.115 875.469 217.686 874.391 218.765C873.312 219.844 871.741 220.383 869.677 220.383ZM913.99 220.524C910.472 220.524 907.565 219.985 905.266 218.906C903.015 217.827 901.327 216.209 900.201 214.052C899.076 211.847 898.513 209.104 898.513 205.821V194.354H896.121C894.62 194.354 893.448 193.955 892.603 193.158C891.806 192.36 891.408 191.211 891.408 189.711C891.408 188.21 891.806 187.084 892.603 186.334C893.448 185.536 894.62 185.138 896.121 185.138H898.513V180.776C898.513 178.712 899.052 177.141 900.131 176.063C901.21 174.984 902.757 174.445 904.774 174.445C906.791 174.445 908.338 174.984 909.417 176.063C910.496 177.141 911.035 178.712 911.035 180.776V185.138H916.804C918.352 185.138 919.524 185.536 920.321 186.334C921.166 187.084 921.588 188.21 921.588 189.711C921.588 191.211 921.166 192.36 920.321 193.158C919.524 193.955 918.352 194.354 916.804 194.354H911.035V205.399C911.035 207.134 911.434 208.424 912.231 209.268C913.075 210.065 914.389 210.464 916.171 210.464C916.827 210.464 917.46 210.393 918.07 210.253C918.68 210.112 919.243 210.042 919.759 210.042C920.509 209.995 921.119 210.229 921.588 210.745C922.057 211.214 922.291 212.316 922.291 214.052C922.291 215.459 922.08 216.655 921.658 217.639C921.236 218.577 920.486 219.258 919.407 219.68C918.75 219.914 917.859 220.102 916.734 220.242C915.608 220.43 914.693 220.524 913.99 220.524ZM937.823 220.524C935.15 220.524 932.781 220.031 930.718 219.046C928.701 218.062 927.107 216.725 925.934 215.037C924.808 213.301 924.246 211.331 924.246 209.127C924.246 206.595 924.902 204.601 926.215 203.147C927.529 201.693 929.639 200.662 932.547 200.052C935.455 199.395 939.324 199.067 944.155 199.067H948.024V204.976H944.155C942.326 204.976 940.801 205.117 939.582 205.399C938.409 205.633 937.542 206.032 936.979 206.595C936.416 207.11 936.135 207.79 936.135 208.635C936.135 209.713 936.51 210.604 937.26 211.308C938.058 212.011 939.183 212.363 940.637 212.363C941.81 212.363 942.841 212.105 943.733 211.589C944.671 211.073 945.421 210.37 945.984 209.479C946.547 208.541 946.828 207.462 946.828 206.243V198.082C946.828 196.394 946.382 195.198 945.491 194.494C944.647 193.791 943.17 193.439 941.059 193.439C939.934 193.439 938.667 193.58 937.26 193.861C935.853 194.096 934.282 194.541 932.547 195.198C931.281 195.667 930.202 195.737 929.311 195.409C928.42 195.081 927.716 194.518 927.2 193.721C926.731 192.923 926.497 192.056 926.497 191.118C926.544 190.18 926.849 189.288 927.411 188.444C928.021 187.6 928.936 186.943 930.155 186.474C932.406 185.63 934.47 185.067 936.346 184.786C938.269 184.505 940.027 184.364 941.622 184.364C945.468 184.364 948.634 184.927 951.119 186.052C953.652 187.131 955.528 188.819 956.747 191.118C958.014 193.369 958.647 196.277 958.647 199.841V214.052C958.647 216.115 958.154 217.686 957.169 218.765C956.185 219.844 954.754 220.383 952.878 220.383C950.955 220.383 949.478 219.844 948.446 218.765C947.461 217.686 946.969 216.115 946.969 214.052V212.223L947.391 213.207C947.156 214.708 946.617 215.998 945.773 217.077C944.929 218.155 943.826 219 942.466 219.609C941.106 220.219 939.558 220.524 937.823 220.524Z" fill="#004A81"/>
<path d="M114.03 104.94C122.132 104.94 128.7 98.372 128.7 90.27C128.7 82.168 122.132 75.6 114.03 75.6C105.928 75.6 99.36 82.168 99.36 90.27C99.36 98.372 105.928 104.94 114.03 104.94Z" fill="#004A81"/>
<path d="M204.08 83.56C204.08 88.54 200.04 92.58 195.06 92.58C190.71 92.58 187.06 89.49 186.22 85.37C186.19 85.22 186.17 85.08 186.14 84.93C179.31 46.93 146.07 18.09 106.1 18.09C105.85 18.09 105.59 18.09 105.35 18.09H105.24C100.27 18.07 96.26 14.04 96.26 9.07C96.26 4.1 99.97 0.4 104.66 0.08C104.81 0.08 104.95 0.07 105.09 0.06C105.16 0.06 105.23 0.06 105.29 0.06C106.46 0.02 107.63 0 108.81 0C156.91 0 196.77 35.33 203.84 81.46C203.84 81.48 203.84 81.5 203.84 81.51C203.92 82.04 204 82.58 204.07 83.11C204.07 83.26 204.08 83.42 204.08 83.58V83.56Z" fill="#004A81"/>
<path d="M167.98 86.93C167.98 91.91 163.94 95.95 158.96 95.95C154.95 95.95 151.54 93.33 150.38 89.7C150.32 89.47 150.25 89.24 150.19 89.01C144.77 70.34 128.37 56.33 108.43 54.47C108.25 54.45 108.08 54.43 107.9 54.42C103.39 53.93 99.87 50.1 99.87 45.46C99.87 40.47 103.91 36.44 108.89 36.44C108.98 36.44 109.08 36.44 109.17 36.44C109.26 36.44 109.35 36.44 109.43 36.45C137.76 37.56 161.22 57.57 167.56 84.22C167.56 84.22 167.56 84.23 167.56 84.24C167.67 84.7 167.78 85.16 167.87 85.62C167.93 86.04 167.96 86.48 167.96 86.92L167.98 86.93Z" fill="#004A81"/>
<path d="M113.73 173.16C113.73 173.04 113.73 172.92 113.73 172.8C113.73 141.39 88.27 115.93 56.86 115.93C25.45 115.93 0 141.39 0 172.8C0 204.21 25.46 229.67 56.87 229.67C65.95 229.67 74.52 227.54 82.13 223.76L114.02 239.47L113.73 173.16ZM56.87 198.12C42.89 198.12 31.55 186.79 31.55 172.8C31.55 158.81 42.88 147.48 56.87 147.48C70.86 147.48 82.19 158.82 82.19 172.8C82.19 186.78 70.85 198.12 56.87 198.12Z" fill="#FCBF00"/>
</svg>
