<svg width="24" height="24" viewBox="0 0 205 240" fill="none" xmlns="http://www.w3.org/2000/svg">
<path d="M114.03 104.95C122.132 104.95 128.7 98.382 128.7 90.28C128.7 82.178 122.132 75.61 114.03 75.61C105.928 75.61 99.36 82.178 99.36 90.28C99.36 98.382 105.928 104.95 114.03 104.95Z" fill="#004A81"/>
<path d="M204.08 83.57C204.08 88.55 200.04 92.59 195.06 92.59C190.71 92.59 187.06 89.5 186.22 85.38C186.19 85.23 186.17 85.09 186.14 84.94C179.31 46.94 146.07 18.1 106.1 18.1C105.85 18.1 105.59 18.1 105.35 18.1H105.24C100.27 18.08 96.26 14.05 96.26 9.08001C96.26 4.11001 99.97 0.41001 104.66 0.0900098C104.81 0.0900098 104.95 0.0800098 105.09 0.0700098C105.16 0.0700098 105.23 0.0700098 105.29 0.0700098C106.46 0.0300098 107.63 0.0100098 108.81 0.0100098C156.91 0.0100098 196.77 35.34 203.84 81.47C203.84 81.49 203.84 81.51 203.84 81.52C203.92 82.05 204 82.59 204.07 83.12C204.07 83.27 204.08 83.43 204.08 83.59V83.57Z" fill="#004A81"/>
<path d="M167.98 86.94C167.98 91.92 163.94 95.96 158.96 95.96C154.95 95.96 151.54 93.34 150.38 89.71C150.32 89.48 150.25 89.25 150.19 89.02C144.77 70.35 128.37 56.34 108.43 54.48C108.25 54.46 108.08 54.44 107.9 54.43C103.39 53.94 99.87 50.11 99.87 45.47C99.87 40.48 103.91 36.45 108.89 36.45C108.98 36.45 109.08 36.45 109.17 36.45C109.26 36.45 109.35 36.45 109.43 36.46C137.76 37.57 161.22 57.58 167.56 84.23C167.56 84.23 167.56 84.24 167.56 84.25C167.67 84.71 167.78 85.17 167.87 85.63C167.93 86.05 167.96 86.49 167.96 86.93L167.98 86.94Z" fill="#004A81"/>
<path d="M113.73 173.17C113.73 173.05 113.73 172.93 113.73 172.81C113.73 141.4 88.27 115.94 56.86 115.94C25.45 115.94 0 141.4 0 172.81C0 204.22 25.46 229.68 56.87 229.68C65.95 229.68 74.52 227.55 82.13 223.77L114.02 239.48L113.73 173.17ZM56.87 198.13C42.89 198.13 31.55 186.8 31.55 172.81C31.55 158.82 42.88 147.49 56.87 147.49C70.86 147.49 82.19 158.83 82.19 172.81C82.19 186.79 70.85 198.13 56.87 198.13Z" fill="#FCBF00"/>
</svg>
