<svg width="720" height="900" viewBox="0 0 720 900" fill="none" xmlns="http://www.w3.org/2000/svg">
<path d="M706.539 826.729L706.187 827.384L706.713 827.91L873.865 995.062L875.572 996.769V994.355V342.595V340.181L873.865 341.888L361.489 854.264L360.782 854.971L361.489 855.678L532.955 1027.14L533.248 1027.44H533.662H842.355H844.769L843.062 1025.73L675.91 858.578L675.378 858.046L674.719 858.409C663.132 864.803 650.221 868.26 637.324 868.26C617.088 868.26 596.856 860.54 581.414 845.098L581.413 845.096C550.533 814.349 550.531 764.164 581.414 733.28C596.325 718.369 616.156 710.117 637.324 710.117C658.491 710.117 678.322 718.369 693.233 733.28C718.516 758.563 722.652 796.766 706.539 826.729ZM-154.73 679.563L-156.437 677.856V680.27V724.889V725.303L-156.145 725.596L145.539 1027.28L145.832 1027.57H146.246H469.497H471.911L470.204 1025.87L176.879 732.539L176.354 732.015L175.7 732.365C164.232 738.498 151.722 742.087 138.427 742.087C117.26 742.087 97.4289 733.835 82.5183 718.925L82.5168 718.923C51.6365 688.176 51.6343 637.991 82.5183 607.107L82.5198 607.105C113.267 576.225 163.452 576.223 194.336 607.107C219.622 632.392 223.888 670.728 207.511 700.684L207.152 701.342L207.682 701.871L329.272 823.461L329.979 824.168L330.686 823.461L864.765 289.382L865.472 288.675L864.765 287.968L572.652 -4.14458L572.36 -4.43747H571.945H250.986H248.571L250.279 -2.7302L542.492 289.349L367.42 464.422L366.894 464.947L367.246 465.602C383.36 495.565 379.223 533.768 353.94 559.051C339.029 573.962 319.198 582.214 298.031 582.214C276.864 582.214 257.033 573.962 242.122 559.051L242.12 559.05C211.241 528.303 211.238 478.119 242.12 447.235C267.406 422.082 305.477 417.815 335.436 433.927L336.091 434.279L336.617 433.754L480.314 290.191L481.022 289.484L480.314 288.777L187.393 -4.14458L187.1 -4.43747H186.686H146.246H145.832L145.539 -4.14458L-156.145 297.539L-156.437 297.832V298.246V617.857V620.272L-154.73 618.564L171.352 292.348L171.874 291.825L171.528 291.173C165.529 279.84 161.939 267.193 161.939 254.031C161.939 232.864 170.191 213.033 185.101 198.122L185.103 198.121C215.85 167.24 266.036 167.238 296.92 198.122C311.83 213.033 320.082 232.864 320.082 254.031C320.082 275.199 311.83 295.03 296.92 309.94C282.009 324.851 262.178 333.103 241.01 333.103C227.582 333.103 214.67 329.38 203.207 323.115L202.55 322.756L202.02 323.286L-154.494 679.799L-154.73 679.563ZM215.631 279.268L215.635 279.272C229.101 292.738 252.515 292.738 265.982 279.272C279.852 265.401 279.852 242.796 265.982 228.925C259.047 221.991 250.028 218.522 240.876 218.522C231.86 218.522 222.705 221.99 215.77 228.925C201.9 242.795 201.9 265.398 215.631 279.268ZM873.73 235.462L875.437 237.169V234.755V-3.43747V-4.43747H874.437H636.245H633.831L635.538 -2.73036L873.73 235.462ZM82.5183 -2.73036L84.2254 -4.43747H81.8112H-155.437H-156.437V-3.43747V233.811V236.225L-154.73 234.518L82.5183 -2.73036ZM-154.73 788.482L-156.437 786.775V789.189V1026.44V1027.44H-155.437H81.8112H84.2254L82.5183 1025.73L-154.73 788.482ZM-200 1071V-48H919V1071H-200ZM612.218 764.083C598.348 777.952 598.347 800.555 612.214 814.426C625.953 828.303 648.561 828.298 662.43 814.43C676.3 800.559 676.3 777.953 662.43 764.083C655.495 757.149 646.476 753.68 637.324 753.68C628.308 753.68 619.153 757.147 612.218 764.083ZM272.925 528.383C286.391 541.849 309.806 541.849 323.272 528.383C337.143 514.512 337.143 491.904 323.133 478.033C316.2 471.101 307.182 467.633 298.031 467.633C289.015 467.633 279.861 471.101 272.925 478.036C259.054 491.907 259.054 514.513 272.925 528.383ZM113.187 637.775C99.316 651.645 99.316 674.251 113.187 688.122C126.651 701.586 150.068 701.591 163.402 688.118C177.269 674.247 177.268 651.644 163.399 637.775C156.464 630.841 147.445 627.372 138.293 627.372C129.277 627.372 120.122 630.839 113.187 637.775Z" stroke="white" stroke-opacity="0.15" stroke-width="2"/>
</svg>
