<svg width="120" height="120" viewBox="0 0 120 120" fill="none" xmlns="http://www.w3.org/2000/svg">
<path d="M100 120H20C9 120 0 111 0 100V20C0 9 9 0 20 0H100C111 0 120 9 120 20V100C120 111 111 120 100 120Z" fill="#DDF4F0"/>
<path d="M83.875 82.625H0V21.625H83.875C88 21.625 91.25 24.875 91.25 29V75.125C91.25 79.25 88 82.625 83.875 82.625Z" fill="white"/>
<path d="M91.25 33H0V44.75H91.25V33Z" fill="#B1E2D6"/>
<path d="M64.125 73H0V65.25H64.125C64.75 65.25 65.25 65.75 65.25 66.375V71.875C65.25 72.5 64.75 73 64.125 73Z" fill="#00AE8D"/>
<path d="M110.5 102.625H19.875C18.375 102.625 17.125 101.375 17.125 99.875V93C17.125 91.5 18.375 90.25 19.875 90.25H110.375C111.875 90.25 113.125 91.5 113.125 93V99.875C113.25 101.5 112 102.625 110.5 102.625Z" fill="#00AE8D"/>
<path d="M10.875 67.75H0V70.375H10.875V67.75Z" fill="#B1E2D6"/>
<path d="M42.875 67.75H16V70.375H42.875V67.75Z" fill="#B1E2D6"/>
<path d="M40.5 94.25H22.125V98.75H40.5V94.25Z" fill="#B1E2D6"/>
<path d="M84.25 94.25H46V98.75H84.25V94.25Z" fill="#B1E2D6"/>
<path d="M108 94.25H89.375V98.75H108V94.25Z" fill="#B1E2D6"/>
<path d="M62 67.75H48.5V70.375H62V67.75Z" fill="#B1E2D6"/>
</svg>
